<svg width="229" height="259" viewBox="0 0 229 259" fill="none" xmlns="http://www.w3.org/2000/svg">
<path d="M162.761 126.053C182.205 131.046 192.827 144.727 202.237 162.192C206.241 169.622 207.097 172.353 210.19 185.314C208.932 190.91 209.957 185.314 210.19 185.314C212.841 185.314 210.212 191.452 208.932 190.91C203.751 188.718 196.49 187.561 196.935 194.003C195.357 192.294 193.614 190.079 192.517 188.701C188.099 186.01 190.891 184.301 188.099 187.817C183.112 194.092 179.006 199.991 178.854 208.011C178.778 212.035 181.26 216.138 182.657 220.179C183.451 222.478 184.136 224.721 182.098 226.698C180.182 228.559 178.484 227.82 176.927 226.091C174.803 223.732 172.881 221.126 170.492 219.099C169.292 218.081 166.968 217.298 165.635 217.783C154.706 221.768 146.824 215.569 137.504 209.578C121.917 199.553 109.397 188.435 97.2985 174.232C86.7854 161.889 79.0051 149.889 75.2075 134.027C71.6087 118.993 67.6247 103.789 71.1012 88.5016C75.6623 67.7544 79.7046 62.9392 91.5553 54.4995C97.1431 50.5192 106.449 47.2421 112.5 43.9492C114.557 42.832 115.621 41.2324 114.489 38.9706C114.005 38.0071 112.861 36.9133 111.888 36.7602C107.182 36.0236 102.404 35.7699 97.7069 34.9921C93.1674 34.2409 92.6211 33.3856 92.3822 28.6784C92.2856 26.8186 92.184 24.9468 92.2743 23.0922C92.3832 20.8278 91.1866 19.6937 89.2593 19.6691C85.6814 19.6222 82.1008 19.8859 78.522 20.0268C77.8973 20.053 77.2736 20.1067 75.6628 20.2125C77.5899 18.5055 78.7074 17.2939 80.026 16.3823C93.0354 7.36177 106.034 8.21811 119.832 16.3825C126.285 20.203 128.912 28.0424 130.877 34.9921C133.351 43.7372 135.239 51.6942 135.522 60.5728C135.888 72.025 135.661 80.1904 137.289 91.5003C138.69 101.25 141.123 111.696 148.335 118.893C152.596 123.147 157.322 124.655 162.761 126.053Z" fill="white"/>
<path d="M168.849 5.48899C180.846 12.1935 191.684 20.7253 197.535 33.6315C200.359 39.8571 201.368 46.8789 202.679 53.6004C205.444 67.801 200.726 80.4014 196.658 92.9841C194.133 100.787 189.931 107.731 184.453 113.776C181.535 116.995 179.002 120.583 176.383 124.076C175.494 125.263 175.907 126.177 177.485 126.811C182.636 128.882 187.515 127.458 189.948 122C192.356 116.599 193.798 110.696 195.697 105.029C195.855 104.564 196.285 104.214 196.589 103.812C196.914 104.155 197.36 104.451 197.544 104.85C200.253 110.697 201.075 116.788 201.27 122.958C201.3 123.899 201.321 124.837 201.908 126.035C203.511 122.331 205.115 118.626 206.935 114.417C207.517 116.487 208.244 118.24 208.449 120.011C208.76 122.715 208.733 125.432 208.804 128.139C209.012 135.815 206.738 142.81 204.535 149.799C203.967 151.606 204.05 152.999 205.06 154.744C206.986 158.079 209.078 161.436 210.315 165.002C211.988 169.826 213.346 174.833 214.028 179.805C214.533 183.483 213.715 187.229 213.584 190.958C213.573 191.3 214.218 191.942 214.646 192.082C218.53 193.357 222.497 194.363 226.297 195.887C227.367 196.318 228.242 198.132 228.66 199.447C228.831 199.989 227.723 201.17 226.928 201.578C221.414 204.392 215.779 206.99 210.286 209.842C207.091 211.5 204.031 213.415 201.012 215.366C198.716 216.848 196.073 215.206 195.159 213.237C194.142 211.045 193.108 208.377 193.43 206.236C193.989 202.514 191.549 200.121 190.209 197.216C189.984 196.723 189.705 196.17 189.3 195.851C188.679 195.357 187.945 194.87 187.221 194.733C186.926 194.677 186.434 195.489 186.205 195.999C184.562 199.67 182.473 203.276 184.071 207.765C185.295 211.21 186.955 214.543 188.011 218.019C188.877 220.871 189.026 223.883 189.721 226.787C189.987 227.904 190.686 229.129 191.527 229.941C194.095 232.416 197.025 234.534 199.437 237.141C201.581 239.459 200.809 241.946 198.179 243.157C195.426 244.424 192.572 245.587 190.083 247.256C187.253 249.152 184.96 251.83 182.097 253.668C179.186 255.538 175.94 256.968 172.687 258.25C171.21 258.833 169.22 256.097 169.645 254.262C170.867 248.993 171.775 243.592 173.479 238.523C174.767 234.696 171.558 228.703 168.063 225.628C163.851 221.925 159.335 222.839 154.731 222.165C148.598 221.27 142.258 219.774 136.543 217.14C131.093 214.625 126.14 210.57 121.325 206.717C117.446 203.612 114.114 199.786 110.512 196.308C106.172 192.115 101.643 188.103 97.4989 183.725C94.3061 180.352 91.8674 176.242 88.5957 172.968C81.2311 165.596 78.0073 156.155 73.6308 147.259C72.9964 145.97 71.8426 144.593 70.6156 143.923C57.8771 136.963 45.1022 130.08 32.2808 123.295C23.5232 118.66 17.6381 111.167 12.3997 103.113C3.43548 89.3254 -1.06706 74.563 0.214921 58.6918C0.286501 57.818 0.379471 56.9372 0.574486 56.093C1.13891 53.6432 1.77904 51.0731 4.68127 50.6811C7.58804 50.285 9.63127 52.3811 11.1912 54.5727C15.4924 60.6219 19.4331 66.9222 23.837 72.898C27.8308 78.3212 32.6059 83.0319 38.547 86.3196C43.8979 89.2793 47.9267 88.9327 52.0919 85.1483C58.6734 79.1683 65.5079 73.4446 71.7387 67.1146C76.512 62.264 80.5069 56.6363 84.8759 51.377C85.4054 50.7386 86.1065 50.2496 87.1201 49.3436C84.4324 49.7632 82.2537 50.3453 80.0172 50.409C71.8243 50.6359 63.6243 51.1902 55.405 50.7028C42.0218 49.9067 29.1547 51.9293 16.1863 53.5362C15.7735 53.5883 15.3551 53.7882 14.9619 53.7157C13.5328 53.4524 12.111 53.1005 10.6877 52.783C11.2268 51.3914 11.3434 49.3347 12.3742 48.7176C17.9775 45.3708 23.6306 42.0262 29.6022 39.35C37.7738 35.6883 46.2717 32.6752 54.5851 29.2908C63.5975 25.6237 70.8693 19.4661 78.0704 13.2458C86.96 5.56381 97.5264 1.69712 109.679 2.74475C126.404 4.18594 135.99 12.0274 140.996 29.6749C144.759 42.9367 144.772 56.1341 144.194 69.3544C144.178 69.7372 144.14 70.1153 144.046 71.391C146.029 69.7017 147.807 68.6684 148.952 67.1304C155.588 58.2057 158.782 47.7206 157.348 36.197C156.238 27.2767 153.249 18.4338 151.09 9.55701C150.709 7.98002 150.189 6.41763 149.936 4.83057C149.387 1.36827 150.738 -0.632309 154.045 0.180373C159.08 1.41221 164.281 2.93781 168.851 5.48974L168.849 5.48899ZM202.657 164.43C193.708 147.036 181.031 133.785 162.265 127.366C157.016 125.568 151.578 123.86 147.494 119.454C140.58 111.999 137.029 102.897 135.758 93.5196C134.282 82.643 134.148 71.6652 133.893 60.7611C133.697 52.3074 134.943 43.9193 132.626 35.4033C130.787 28.6349 128.456 21.8951 122.246 17.7114C108.971 8.76836 95.8472 8.66092 83.1855 16.1017C81.9042 16.8541 80.8118 17.9085 78.9322 19.3613C80.4932 19.4007 81.0962 19.4022 81.6993 19.4319C85.1622 19.6071 88.6283 19.6675 92.088 20.0194C93.9527 20.2106 95.1004 21.3906 94.9747 23.5296C94.8713 25.2826 94.9534 27.0684 95.0308 28.8424C95.2219 33.3334 95.7421 34.1912 100.127 35.2963C104.663 36.4402 109.282 37.0938 113.828 38.1994C114.767 38.4273 115.864 39.5646 116.325 40.5225C117.4 42.7676 116.357 44.1943 114.358 45.0774C108.478 47.6806 102.263 49.7774 96.8241 53.0752C85.2895 60.064 77.2793 70.183 73.9304 83.7998C70.4354 98.0138 72.318 112.451 75.6684 127.037C79.2045 142.424 85.0864 156.857 95.1495 169.484C106.729 184.013 120.251 196.572 135.242 207.436C144.204 213.93 153.644 217.54 164.252 214.701C165.545 214.355 167.786 215.298 168.938 216.369C171.232 218.5 173.068 221.14 175.102 223.562C176.593 225.338 178.228 226.187 180.098 224.585C182.086 222.884 181.444 220.696 180.695 218.444C179.379 214.487 177.013 210.378 177.122 206.565C177.339 198.963 180.482 192.265 185.361 186.738C188.093 183.642 188.601 183.842 191.277 187.426C192.326 188.829 193.554 190.104 195.066 191.863C194.691 185.709 197.753 183.791 202.745 186.318C203.978 186.943 205.148 187.722 206.405 188.274C206.716 188.409 207.591 188.005 207.627 187.722C208.703 179.6 206.463 171.828 202.655 164.429L202.657 164.43ZM86.0332 34.8982C88.2615 33.9714 89.0884 30.0622 87.6026 27.376C86.4622 25.3148 84.7289 24.5212 82.6637 25.3715C80.1128 26.4211 79.2992 29.9928 81.047 33.3574C82.0946 35.1421 83.8707 35.7979 86.0318 34.8988L86.0332 34.8982Z" fill="black"/>
</svg>
