<svg xmlns="http://www.w3.org/2000/svg" viewBox="0 0 144.72 91.44"><defs><style>.cls-1{fill:#fff;}</style></defs><g id="圖層_2" data-name="圖層 2"><g id="圖層_1-2" data-name="圖層 1"><path class="cls-1" d="M36.82,91.44,38.21,91a1.92,1.92,0,0,0-2.33,0Z"/><path class="cls-1" d="M87.14,64.14c2-1,4.24-1.56,4.56-4.47.21-1.91,2.73-2,4.49-.06a10.08,10.08,0,0,0,4.08,2.65,1.28,1.28,0,0,0,1.62-.42,1.1,1.1,0,0,0,0-1.44c-2.49-2.48.07-3.33,1.49-4.35.94-.67,2.4-.76,2.31-2.36s-1.77-1-2.58-1.62a3.5,3.5,0,0,1-.62-.79c1.52-1,1.19-3.45,3.25-4.12.19,1-.88,2,.21,2.88,3,0,2.63-2.94,3.86-4.49a22.75,22.75,0,0,1,6.66,2.72c1.53.87,3.12,2,5,.79-.24-1.89-2.06-1.85-3.2-2.64a32.31,32.31,0,0,0-9.87-3.5,6.87,6.87,0,0,0-8,8.67c.25,1,.58,2,0,3a1.79,1.79,0,0,1-1.82.57,4,4,0,0,0-.69,0,5.29,5.29,0,0,1-2.43-.28c-2.31-.37-3.84.34-4.39,2.83s-2.55,3.84-3.94,5.68A1.25,1.25,0,0,0,87.14,64.14Z"/><path class="cls-1" d="M78.89,24.58c.3,3.59,3,5.69,5.07,8.21.69.85,1.76,1.79.94,3s-2,.12-3.05.07c-4.21-.2-5.6-2.87-6.73-6.43a16.2,16.2,0,0,0-12-11.14c-4.16-1-8.45-2.59-12.95-1.83a2.38,2.38,0,0,0-2,1.73c-.67,1.65-1.51,3.29-3.62,1.16a1.38,1.38,0,0,0-2.49.47,16.36,16.36,0,0,0,4.83,2.29,3.3,3.3,0,0,0,1.89-.63,7.78,7.78,0,0,1,7.45-2.58c5.2.68,10.24,1.72,13.85,6,1.29,1.33,1.35,3.31,2.47,4.74.87.66.68,1.62.73,2.51a6.32,6.32,0,0,0,1.4,3.22c2.61,2.35,5.53,3.73,9.17,3.28,2.21-.28,3.54-1.24,3.44-3.64a4.86,4.86,0,0,0-.86-2.32,35.83,35.83,0,0,0-6.79-8.14A1.51,1.51,0,0,0,78.89,24.58Z"/><path class="cls-1" d="M16.54,43.3c-.18.17-.42.53-.54.49-1.15-.35-2.41-1.28-3.09.61-.5,1.4-1.87,2.77,0,4.27.81.66.43,1.49-.52,1.7-1.76.39-3,1-2.92,3.16,0,1-.84.85-1.54.64a1.22,1.22,0,0,0-.34,1.36,2,2,0,0,0,1.64,1.4,1.58,1.58,0,0,0,.71-.17c1.09-.8,2.16-1.61,2.29-3.13.07-.8.69-1.1,1.4-1.22a3.88,3.88,0,0,0,.69-.18A14.21,14.21,0,0,1,20,53.77a4.91,4.91,0,0,0,2.73.65c1.5-.05,2.48-.77,2.48-2.36s-.37-3.09-2.39-2.93c-1.57.13-2.24-.08-1.78-1.86a2.83,2.83,0,0,0-1.3-2.9C18.57,44.21,17.82,43,16.54,43.3Z"/><path class="cls-1" d="M12.3,74.05l3-.25a.49.49,0,0,0,.27-.6c-.48-.58-1.2-.62-1.86-.82-4.55-1.33-6-4.13-4.93-8.82.49-2.25.38-4,3.71-4.12,3.51-.12,3.49-.67,2.06-4a1,1,0,0,1,.09-.77c2.46.94,5.18.55,7.67,1.47a1,1,0,0,0,1.19-1.22,1.45,1.45,0,0,0-.61-.54c-3-1.13-5.9-2.61-9.21-2.66h0a1.88,1.88,0,0,0-1.85,2.08c.24,1.86-.95,2.35-2.23,2.88h0c-1,.15-1.84-.64-2.82-.2a2.81,2.81,0,0,0-1.44,3.69,4.47,4.47,0,0,1-.18,3.49C3.41,67.53,3.53,67.92,6.55,71a8.53,8.53,0,0,1,2.92,2.06A3.12,3.12,0,0,0,12.3,74.05Z"/><path class="cls-1" d="M6.43,70.68c-2-2.09-2.46-4.37-.78-6.89A3.92,3.92,0,0,0,6,60.57a3.27,3.27,0,0,1,1.34-3.81A1.18,1.18,0,0,0,8,55.33l0-1.16C4.74,51,1.93,51.5.39,55.53c-.21.55-.7,1.17-.1,1.66s1-.23,1.41-.62a4,4,0,0,1,1.06-.7.86.86,0,0,1,1.12.36c.59.82-.21.62-.56.9-.94.77-.59.89.29,2.07s2.66,2.44,1,4.32c-1.21,1.4-.64,3.31-1.43,4.84-.33.63.26.92.72,1.14A5.25,5.25,0,0,1,6.2,71.17C6.56,71.15,6.64,71,6.43,70.68Z"/><path class="cls-1" d="M121.22,49.26c-2.77-1.09-5.7-1.79-8.17-3.66a2.38,2.38,0,0,0-3.29-.05,3.2,3.2,0,0,0,1.81,1.4,6,6,0,0,1,5.1,4.22c.74,1.9,3.8,2.69,6.28,2.94l.44,0c1.6-.89,1.82-2.19,1.11-3.76C123.58,49.41,122.59,48.72,121.22,49.26Z"/><path class="cls-1" d="M51.86,54.88c2.49,1.59,5.42.17,8,1.18,1.12.42,2.2.85,3.72,1.53a22.79,22.79,0,0,0-2.46.08,1.19,1.19,0,0,0-1.09,1c-.09.63.42.9.89,1.12,1.32.64,2.65,1.27,4,1.88.48.23,1,.38,1.43-.07s.52-.8.21-1.17c-1.59-1.88-.35-1.83,1.12-1.74.56,0,.92-.41,1.2-.87-1.22-1.76-3.37-1.64-5-2.44-.72-.35-1.62-.39-2.36-.81a4.87,4.87,0,0,0-2.38-.63,12.6,12.6,0,0,1-5.55-.58,2,2,0,0,0-.77.07,1.68,1.68,0,0,0-.91.73A1,1,0,0,0,51.86,54.88Z"/><path class="cls-1" d="M36.69,17.78l-1.63-.19c-2.9-.78-3.43,1.84-4.76,3.3a5.68,5.68,0,0,1-3.19,3.69,2,2,0,0,0-1.49,1.84c1.16,1.07,2.48,2.16,4.07,1.35,2.13-1.09,2.17-3.23,1.92-5.36.86.41,1.75.17,2.58.39s1.84.71,2.43-.06c.74-1-.42-1.65-.95-2.57a11.23,11.23,0,0,1,5.55,2.5c1.73,1.58,3.42,1.35,4.66-.26a1.87,1.87,0,0,0-.51-.67C42.48,20.39,39.78,18.67,36.69,17.78Z"/><path class="cls-1" d="M46.5,65c1-2.33,1.37-4.92,3.18-6.82,1.12-1.16-1.61-1.68-.36-2.77A1.84,1.84,0,0,0,48,54.13c-2.67-.11-2.75,1.9-3,3.72.13.76.18,1.53.29,2.3.62,4.21-.42,5.57-4.69,6.28-3.09.51-4.07,1.8-3.73,4.93a.92.92,0,0,0,.63.42c1.17-.46,1.21-2,2.36-2.47h0c.81-.61,1.8-.46,2.71-.62C44.7,68.33,46.2,67.29,46.5,65Z"/><path class="cls-1" d="M121.22,49.26l3.29,1.56c.27.49.8.59,1.24.82a.8.8,0,0,1,.48,1,.61.61,0,0,1-.78.47c-1.11-.35-1.67.65-2.5,1h0c1.11,1.76.39,3.5.19,5.36-.27,2.52,2.15,3.58,4,4.66,1,.58,2.27,1.66,3.22-.19-.26-1.22-1.39-1.43-2.27-1.91s-2.12-.81-2.66-1.93c-.68-1.93-.34-3.29,1.56-4.55,2.83-1.88,2.43-4.89-.65-6.42-2.6-1.29-5.18-2.68-8.19-2.79a.61.61,0,0,0-.48.65C118.83,47.78,120.48,47.81,121.22,49.26Z"/><path class="cls-1" d="M60.92,55.14l8,2.64a21.58,21.58,0,0,0,2.46.72c3.58.63,5.36,3.59,7.56,5.94.63.67.86,1.67,2,1.58a.91.91,0,0,0,.9-.78c.11-1.06-1-1-1.47-1.59-.21-.25-.39-.52-.83-1.11,2.76.7,5,2.2,7.61,1.6l.23-.49c-3.25-1.48-6.52-2.94-9.84-4.2C73.3,57.83,69.12,56,64.68,55,63.41,54.67,62.11,53.77,60.92,55.14Z"/><path class="cls-1" d="M139.37,49.83c3.79-1.8,3.65-5.9,5.23-9a1.32,1.32,0,0,0-.72-1.73c-2.49-1.27-4.54-3.29-7.17-4.34a.55.55,0,0,0-.31.64c.75,1.75,2.55,2.7,3.33,4.48a9.26,9.26,0,0,1,.08,7.16c-.28.8-.82,1.52-.63,2.44Z"/><path class="cls-1" d="M31,21.37c.66-2,2.24-3.06,4.11-3.78-1.47-1.53-2.46-1.41-3.76.46-1.69,2.44-2.93,5.48-6.25,6.38-.41.11-.92.44-1.22.31-2.94-1.36-4.74,1-6.94,2.05.05.13.09.25.14.37.74.89,1.71.68,2.64.47a30.87,30.87,0,0,0,8.67-3.18C29.64,23.7,30,22.3,31,21.37Z"/><path class="cls-1" d="M46.5,65c-.86,2.41-2.88,3-5.1,3-1,0-1.71,0-1.55,1.29,1.24.51,1.77,1.27,1.07,2.61s-1.19,2.49-1.75,3.75c-.28.63-.2,1.21.53,1.48s1-.11,1.27-.59c.13-.22.23-.46.36-.68C43,73,43.46,69.56,46,67.15A2,2,0,0,0,46.5,65Z"/><path class="cls-1" d="M132.05,10.69c-.92-2.16-3.05-3-4.88-3.93-3.58-1.8-7.06-3.9-11-4.85-1-.25-1.9-1.13-2.93-1.49-2.66-.94-5.1-.21-7.36,1.3,1.11,1.73,2.91.34,4.27,1a2.57,2.57,0,0,0,.83,0,33.62,33.62,0,0,1,17.34,6.61c1,.76,1.95,1.72,3.39,1.61Z"/><path class="cls-1" d="M110.25,2.07c-1.41-.86-3,.3-4.42-.35L104,2a4.51,4.51,0,0,0-3.9,2.16h0c-2.52,1.1-2.94,3.19-2.66,5.62a1.94,1.94,0,0,0,2.36-1c.7-1.67,2.31-2.25,3.38-3.42a4.59,4.59,0,0,1,3.44-1.45C108,3.82,109.54,3.69,110.25,2.07Z"/><path class="cls-1" d="M131.74,63.45c1-1.18-.4-2.52.23-3.73,1.35-2.63,2-5.68,4.85-7.37a5.65,5.65,0,0,0,2.55-2.52l0,0c-3.06,0-7,3.06-8.48,6.67-.17,1.29-.46,2.55-.62,3.83a7.29,7.29,0,0,0,.06,1.55C130.55,62.6,130.74,63.39,131.74,63.45Z"/><path class="cls-1" d="M105.9,50c-.21-1.5.62-2.41,1.95-3-2.67-1.48-3.3-1.27-4.58,1.34a5.48,5.48,0,0,0-.83,3A2.28,2.28,0,0,0,105.9,50Z"/><path class="cls-1" d="M97.86,10c-.62-2.47,1-4.09,2.22-5.85-2.07.29-3.23.93-3.29,3.58,0,1.63-1,3.49-1.24,5.38,1,.44.49-.92,1.23-.88.33,1.17.71,2.35,0,3.59a.9.9,0,0,0,.9.59c.87-.36.9-1.16,1-1.92a17.37,17.37,0,0,0-.62-4.23Z"/><path class="cls-1" d="M138.5,20.1c.41-1.16-.22-2.45.9-3.62.9-.94-.54-1.62-1.19-2.16-1.83-1.56-4.38-1.94-6.16-3.63h0c-.71,1.34.56,1.87,1.1,2.7a4.7,4.7,0,0,0,.49.51c1.12,1.14,2.48,2.1,3,3.74a2.78,2.78,0,0,0,.25.68C137.29,19,137.39,20,138.5,20.1Z"/><path class="cls-1" d="M15.53,73.3c-.07.16-.14.33-.22.5,2.16.67,4.37.31,6.57.39a16.44,16.44,0,0,1,2.73.53c2.1-.09,4.19.11,6.29.11h0c.77-.17,2,.73,2.12-.94a2.47,2.47,0,0,0-2.63-1.31c-4.14.57-8.28-.53-12.42,0C17.12,72.74,16.23,72.64,15.53,73.3Z"/><path class="cls-1" d="M78.89,24.58l.5.23C80.8,24.47,81,22.08,83,22.68a5.37,5.37,0,0,0,.7,0c1.76-.19,3.46.36,5.21.38a1.87,1.87,0,0,0,.69-.19.58.58,0,0,0,.19-.63c-1.78-1.2-4.41-.2-5.88-2.48-.46-.71-4.15,1.69-4.42,2.85C79.32,23.3,79.09,23.94,78.89,24.58Z"/><path class="cls-1" d="M97.78,16.29l-1-.45c0,1.15.14,2.16-1,3.17a2.56,2.56,0,0,0-.47,3.59c2,.68,2.36-1,3-2.17a4.27,4.27,0,0,0,.59-2.92C98.8,16.87,98.52,16.36,97.78,16.29Z"/><path class="cls-1" d="M13.7,29.87c-3.28,3.29-3.29,6.56,0,8.61,1-1.11-.12-2.23,0-3.35a5.4,5.4,0,0,0-.08-.69c-.49-1.47,1.06-2.81.31-4.31C13.85,30.05,13.78,30,13.7,29.87Z"/><path class="cls-1" d="M36.69,17.78c3.14,1.11,5.62,3.44,8.68,4.69.55-.31,1.52.13,1.63-.94-1.79-.19-2.7-2.81-4.93-1.76C40.25,19.18,38.79,17.61,36.69,17.78Z"/><path class="cls-1" d="M138.5,20.1l-1.19-2.31a3.1,3.1,0,0,0-1.65,3.84,21.26,21.26,0,0,1,.48,4.23.51.51,0,0,0,.64.31A12.15,12.15,0,0,0,138.5,20.1Z"/><path class="cls-1" d="M100.08,4.17C101.33,3.36,103,3.32,104,2a2.71,2.71,0,0,0-3.31-.78C99.4,1.82,100,3.12,100.08,4.17Z"/><path class="cls-1" d="M98.48,17.21c-.47,2.14-.68,4.43-3.16,5.39-.52.33-1.27.27-1.59.94l.09.39c1.07,1.28,2.11,1.25,3.18,0,1.2-1.42,2.81-2.59,2.75-4.74,0-.93.08-1.91-.9-2.5C98.51,16.7,98.39,16.88,98.48,17.21Z"/><path class="cls-1" d="M33,74.12l-2.09.71c.22,1.91.17,1.81,2.24.66.69-.38,1.76-.06,2.65-.06.85-1.13,2.12-2.06,1.78-3.75l-.45-.22c-1.31.19-1.53,2-2.95,2A2,2,0,0,0,33,74.12Z"/><path class="cls-1" d="M136.78,26.17l-.47-.22c-2,.55-3.11,2.09-4.22,3.59-1.69,2.29-1.33,3.59,1.2,5.17,1.07.19,2,1.12,3.22.52.07-.15.14-.31.2-.46-4.8-2.27-4.78-2.26-1.27-6.41A16.64,16.64,0,0,0,136.78,26.17Z"/><path class="cls-1" d="M16.54,43.3c.92.47,1.4,1.88,2.81,1.34a1.56,1.56,0,0,0,0-1.18c-1.22-1.34-2.16-3.05-4.29-3.15-.71.06-1.31.26-.61,1.06S15.85,42.66,16.54,43.3Z"/><path class="cls-1" d="M37.57,71.68c-.59,1.25-1.18,2.5-1.78,3.75,1.62.27,1.52-1.32,2.05-2.08a26.68,26.68,0,0,0,2-4C38.31,69.35,38.12,70.69,37.57,71.68Z"/><path class="cls-1" d="M15.09,40.31l4,3.63c.56.67,1.14,1.32,2.15,1.17.35-.18.54-.55.31-.81C19.63,42.15,18,39.67,15,38.77l-.4.17Z"/><path class="cls-1" d="M131.74,63.45l-.94-1.62a6.18,6.18,0,0,1-3.42-.7c-.88-.45-1.79-1.07-2.87-.55,1.46,2,4,2.16,5.85,3.36C130.9,64,131.6,64.54,131.74,63.45Z"/><path class="cls-1" d="M6.43,70.68l-.23.49a7,7,0,0,1,2.83,2c.83,1,1.87,1.77,3.27.83C10.1,73.36,8.57,71.5,6.43,70.68Z"/><path class="cls-1" d="M13.09,34.77c-.55,1.36.6,2.44.58,3.71l.9.46,0,0c1.71-.3,2.42-1,.87-2.41C14.75,35.87,14.26,34.83,13.09,34.77Z"/><path class="cls-1" d="M30.9,74.83a11.4,11.4,0,0,0-6.29-.11A13.38,13.38,0,0,0,30.9,74.83Z"/><path class="cls-1" d="M16.89,26.79c-2.07,0-2.5,1.67-3.19,3.08v0c2,0,3.18-.95,3.2-3.06Z"/><path class="cls-1" d="M89.77,22.28c-.08.15-.15.3-.23.46,1.55,2,2.31,2.11,4.2.84v0Z"/><path class="cls-1" d="M47.89,54.71l1.43.69c.75-.65,1.67-.47,2.54-.52.08-.15.15-.31.23-.47-1.16-1.62-2.57-.74-3.93-.39A.67.67,0,0,0,47.89,54.71Z"/><path class="cls-1" d="M60.92,55.14c3.58,0,6.81,1.6,10.13,2.63A94.42,94.42,0,0,1,81.74,62.2c1.82.81,3.57,1.65,5.63,1.45,2-1.35,3.69-3.06,4.19-5.39.56-2.59,2-3.13,4.23-2.66a9.56,9.56,0,0,0,2.33,0h0c.77-.12,1.56.37,2.32,0,1.73-.86,1.16-2.31.84-3.6-1.37-5.5,2.1-9.09,7.69-8.06a32.57,32.57,0,0,1,8.7,3.14l.25-.44a1.61,1.61,0,0,0-.34-.78,13.54,13.54,0,0,0-2.93-1.63c-.47-.23-1-.44-1.4-.7a2.87,2.87,0,0,1-1.11-1.61,1.77,1.77,0,0,0-2.76-1.12c-.72.49-1.2,1.43-2.3,1.18a6.48,6.48,0,0,0-1.45.19,6.91,6.91,0,0,0-4.77,2.47,9.38,9.38,0,0,0-1.74,3.76,23,23,0,0,0,0,2.49c0,1.58-.57,2.23-2.36,2.12-3.9-.22-5.61,1-7,4.68-1.64,4.16-3.66,5.07-7.61,3.1a115.63,115.63,0,0,0-16.38-6.41,32.17,32.17,0,0,0-9-1.83c-1.15,0-2.48-.47-3.1,1.07,1.56,1.18,3.51.66,5.22,1.19C59.63,54.37,60.25,54.87,60.92,55.14Z"/><path class="cls-1" d="M100.44,55.51a2.88,2.88,0,0,0-2.32,0C98.9,55.85,99.69,56.56,100.44,55.51Z"/><path class="cls-1" d="M98.12,55.56a3,3,0,0,0-2.33,0A1.94,1.94,0,0,0,98.12,55.56Z"/><path class="cls-1" d="M70.76,24.75c-1.59-3.33-5-4.17-7.92-5.34A26.21,26.21,0,0,0,55.79,18c-3.13-.3-5.57.49-7.42,3a1.63,1.63,0,0,0-.79,1.21c1.3,1.14,2.22-.12,3.1-.65s1.45-.48,2,.43a1.09,1.09,0,0,0,1.94.1c2.05-3,4.75-2.08,7.44-1.38a12,12,0,0,1,5.53,2.62,7.79,7.79,0,0,0,1.94,1.43A1.45,1.45,0,0,0,70.76,24.75Z"/><path class="cls-1" d="M70.76,24.75l-.94-.45c-1.11,1.2-.65,2.6-.37,3.88.48,2.24,1.63,4.28,2.36,6.46.42,1.27,1.45,1.94,2.77.75a.84.84,0,0,0,.12-.75,5.9,5.9,0,0,0-1-2.75,8.18,8.18,0,0,0-.54-2.54C72.09,28,72.36,25.86,70.76,24.75Z"/><path class="cls-1" d="M83.48,22.15c-2.69-1.17-3.31.87-4.09,2.66L85.81,33a1.93,1.93,0,0,0,.72-1.4A14.94,14.94,0,0,0,83.47,27C81.88,25.12,81.88,23.76,83.48,22.15Z"/><path class="cls-1" d="M74.7,34.64l-.24.49a3.41,3.41,0,0,0,2.25,2.93c3,1.24,6,2.33,9.27,1.18a4.87,4.87,0,0,0,1.8-2.76,2.27,2.27,0,0,0,0-.82c-.16-.55-.41-1-1.08-1,0,2.66-1.63,3.23-3.86,3.35C79.61,38.16,77.19,36.35,74.7,34.64Z"/><path class="cls-1" d="M86.75,34.64l.73.91c1.19,0,1.56-.67,1-1.61s-1-1.76-2.19-1.84c-.57.1-.39.56-.44.91C86.12,33.55,86.44,34.09,86.75,34.64Z"/><path class="cls-1" d="M47.71,22.44,48.37,21,47,21.53c-.55.31-1.3.26-1.63.94l.48.24C46.58,23.34,47.23,23.52,47.71,22.44Z"/><path class="cls-1" d="M73.17,29.35a2.52,2.52,0,0,0,.54,2.54C74.2,30.9,74.3,30,73.17,29.35Z"/><path class="cls-1" d="M21.44,45.07l-2.33-1.13.24.7c.95,1.25,1.42,2.54.42,4-.27.4-.63,1-.23,1.43s1.11.18,1.69.14c1.09-.07,2.59-1.58,3.09.68.16.76.66,1.71-.27,2.4a2.68,2.68,0,0,1-3.18,0c-1.54-1.13-3.35-1.09-5-1.7a2,2,0,0,0-2.19.14c3.15,1,6.49,1.45,9.36,3.26,2.36-.35,3.49-1.78,3-4a8.45,8.45,0,0,0-4.19-5.84Z"/><path class="cls-1" d="M9.62,56.7c1.83.22,3.32.2,2.61-2.45-.29-1.06.61-1.88,1.47-2.51-.89-.32-1.9.18-1.91.78C11.77,54.37,10.11,55.21,9.62,56.7Z"/><path class="cls-1" d="M8,55.33c-.23.48-.45,1-.67,1.43a3.23,3.23,0,0,0,2.33-.06Z"/><path class="cls-1" d="M47.71,22.44l-1.86.27c-2,.34-3.64.27-5.17-1.66-1.27-1.61-3.83-1.31-5.71-2.16a1,1,0,0,0-1.24.67c-.21.63.29.89.74,1.19.65.45,1.71.45,1.81,1.61-1,.29-1.59-.58-2.39-.69-1.59-.22-3.27-.42-3,2.06a2.79,2.79,0,0,1-.28,2c-.64.87-.94,2.77-2.66.9-.39-.41-1.46-.18-2.22-.25-1.57-.49-3.85-.33-4.16.78-.56,2-1.53.72-2.09.63-3-.45-6.28,1.77-6.37,7h0c.75.81.84,1.93,2.19,2.53,1.64.72-.84.86-.68,1.62a66.41,66.41,0,0,1,6.84,6.15h0c1.71,1.44,3.47,2.84,4.22,5.08,1.11.78.6,1.69.19,2.6a4.37,4.37,0,0,1-2.33,2.5c-1.49,1-2.62-.16-3.81-.69s-2.39-1.12-3.6,1.1c.2-1.92-.12-2.8-1.52-2.42-1,.26-1.85.6-1,2,.4.68-.65,2.35,1.38,1.89a1,1,0,0,1,.32.61c0,.5-.5,1-.8.84-1.69-.8-3.52,2.16-5.27-.36-.44-.63-1.26.59-1,1.39.6,2-.06,3.68-.76,5.48-1.17,3,2.54,7.79,6.3,8.25a15.61,15.61,0,0,0,1.81,0c4.68,0,9.35.58,14,.11a5.48,5.48,0,0,1,3.44.71l1.15,0c1.69-.47,2.1-2,2.5-3.34,1.11-3.85,2.14-4,5.61-4.42C44.7,66,45.79,64.79,45.64,62c-1.21-1.28-.77-2.74-.47-4.19,0-.24,0-.47,0-.71-1-1.7-.22-2.5,1.44-2.84,1.27-1.29,2.76-.91,4.24-.53A5.56,5.56,0,0,0,53,53.69h0c.23-.09.53.05.69-.23,3.37,0,6.62,0,10,1.13a138,138,0,0,1,20.34,8c1.64.83,4.41-.47,5.48-2.33a14.68,14.68,0,0,0,1.19-2.58c1.15-3.37,3.63-4.7,7-3.71,2.06.6,2.26.29,2.12-3.37a1.72,1.72,0,0,1-.27-1.85l2-4.22c.91-1.88,2.7-1.78,4.37-2l1.16,0a3.3,3.3,0,0,0,2.3-1.21c1.08-.58,2.09-.91,1.85,1-.15,1.21.75,1.37,1.46,1.77a.92.92,0,0,1,1.41.67l3.28,1.55a.87.87,0,0,0-.19-1.44,4.51,4.51,0,0,0,3.47,1.85c2.61.39,4.54,2.37,7.09,3,1.11.29,1.05,1.87.8,3a5.65,5.65,0,0,1-2.39,3.55c-1.17.77-2.26,2-1.34,3.49s2.69,2,4.32,2.41c.59.15,1.08-.49,1.08-1.19a11,11,0,0,1,.26-2.05c.49-.92.36-2,.88-2.92a9.88,9.88,0,0,1,4.23-4.49c6-3.06,6.14-7.89,2.64-12.81a19.54,19.54,0,0,0-4.61-4.78c-2.52-.78-2.12-2.25-.92-3.89,1.07-1.46,2.9-2.25,3.55-4.07.66-1.46,1.57-2.7,0-4.43-.83-.95.75-2.42,1-3.73h0c-1.2-1.32-1.95-3-3.33-4.14,0-.06-.2.09-.21-.1s.1-.25,0-.34h0c-3.15-2.86-6.25-5.85-10.28-7.4-4.28-1.64-8.49-3.61-13.2-3.73h0c-1.66.52-3.22,1.49-5.13,1a2,2,0,0,0-1.62.63c-1.91,2.08-4.39,3.67-5.64,6.34h0a32.43,32.43,0,0,1,.51,4.39,5.6,5.6,0,0,0,.34,2.33c.51,3.11-.63,6.17-2.88,7.42-.78.44-1.39-.38-2.09-.57a6,6,0,0,1-4.2-.84h0a38.38,38.38,0,0,1-6-.59h0c-3.2,1-3,1.65-1,4.54,1.26,1.79,2.62,3.54,3.79,5.41.65.62.55,1.68,1.6,2.17s-.09.88-.37,1.28h0a5.41,5.41,0,0,1-1.56,3.28,32.33,32.33,0,0,1-7.59-1c-1.83-.52-2.38-2.16-3.87-2.72-1,.49-1.82.39-2.07-.9-.66-3.36-2.87-6.32-2.57-9.93a3.75,3.75,0,0,0-1.66-1.36c-2.3-.4-3.89-2.3-6.1-2.89-4.58-1.76-6-1.42-8.66,2.31-.29-3.66-1.58-3.2-3.56-1.23A5.32,5.32,0,0,1,47.71,22.44Z"/><path class="cls-1" d="M23.52,55.24c1.77.38,2-1.27,2.75-2.15.05-1,.71-2.1-.3-3-.54-2.55-2.31-4-4.53-5,.87,1.76,2.74,2.73,3.48,4.66.93,2.43.5,4.14-1.87,5.28Z"/><path class="cls-1" d="M123,54.11c.86.15,1.67-1.18,2.69.12.34.44,1.53-.54,1.76-1.36a1.63,1.63,0,0,0-1.14-2.2,5.28,5.28,0,0,0-1.75.15C124,51.94,124,53.26,123,54.11Z"/><path class="cls-1" d="M53.69,53.46l-.69.23a9.84,9.84,0,0,0,5.84,1C57.26,53.75,55.32,54.24,53.69,53.46Z"/><path class="cls-1" d="M53,53.69l-2.09-.4c-1,.17-2.31-.65-2.76,1,1.3.43,2.64-.46,3.94.14Z"/><path class="cls-1" d="M13.09,34.78a13.23,13.23,0,0,1,1.16-3.66c1.15-2.12,2.62-3.3,5.2-2.36a13.12,13.12,0,0,0,3.06.32c-1.16-1.29-1.06-2.15.66-2.34.85-.1,1.7-.24,2.54-.36,1.94-1.47,4.65-2.13,5.24-5-3.05,4.4-8.13,4.39-12.57,5.76-.42.12-1-.19-1.47-.29a9.75,9.75,0,0,1-3.2,3.06C13.87,31.57,12,33,13.09,34.78Z"/><path class="cls-1" d="M45,62c.65,2.65-.3,3.74-2.9,3.32-1.6-.25-5,2.5-6,4.75-.57,1.39-.83,3-2,4,2,.25,2.28-1.42,3-2.64.22-2.75,1.26-4.34,4.46-4.37s5-2.62,4.64-5.81c-.12-1-.37-2-.56-3l-.36.13C44.19,59.52,44.85,60.77,45,62Z"/><path class="cls-1" d="M48.15,54.27c.77-.75,1.86-.59,2.76-1-1.61-.54-3.32-1.68-4.41.77-1.36.7-1.54,2-1.56,3.29l-.22.47a.69.69,0,0,0,.92.45h0c.26-1.48,0-3.31,2.23-3.55C48,54.56,48.06,54.42,48.15,54.27Z"/><path class="cls-1" d="M130,58.61a.94.94,0,0,1-.1.23c-.83.81.67,2.72-.92,2.79a6,6,0,0,1-3.57-1.7c-1.1-1-.15-2,.69-2.54,2.63-1.72,3-4.38,3.27-7.14.13-1.06-.51-1.73-1.19-1.56-1.75.44-2.76-.72-3.91-1.47-2.47-1.6-5.66-1.21-8.32-3.53.56,1.29,1.65,1.6,1.48,2.62l.48.24c2.72,1.52,5.89,1.89,8.59,3.48,2.09,1.24,2.39,3.59.25,4.69-2.71,1.4-2.77,3.43-2.25,5.86,1.32.63,2.67,1.24,4,1.91,1,.52,1.82.51,2.32-.66,0-.38,0-.77,0-1.15-.17-.65.24-1.34-.16-2A.56.56,0,0,0,130,58.61Z"/><path class="cls-1" d="M130,58.61l.47.22a2,2,0,0,0,.9-1.88c1.19-4,5-5.16,8-7.14,1.94-3.74,3.1-7.48.53-11.46a11.25,11.25,0,0,0-3.37-3.12l-2.83-1.32c1.14,3,4.21,4.62,5.32,7.7,1.74,4.82,1.65,6.67-3.07,9C132.09,52.57,131.59,55.69,130,58.61Z"/><path class="cls-1" d="M110.25,2.08c3.87.14,7,2.65,10.9,3.11a12.48,12.48,0,0,1,6.32,3.24c2,1.71,4.17,3.2,6.26,4.78-.3-1-1.53-1.4-1.7-2.51-3.59-2-6.69-4.79-10.63-6.24A85.69,85.69,0,0,0,113,1.89,4.21,4.21,0,0,0,110.25,2.08Z"/><path class="cls-1" d="M131.38,57l-.9,1.88c.1.62.2,1.23.31,1.85A8.94,8.94,0,0,0,131.38,57Z"/><path class="cls-1" d="M98.66,14.41c-.12-1.49.26-3.08-.8-4.4a7.36,7.36,0,0,0,.32,4.18C98.24,14.49,98.4,14.57,98.66,14.41Z"/><path class="cls-1" d="M98.66,14.41l-.48-.22c-.13.7-.27,1.4-.4,2.1l.7.92.23-.48C99.1,16,98.66,15.18,98.66,14.41Z"/><path class="cls-1" d="M133.74,13.21l-.24.48c1.78.89,1.59,3.61,3.81,4.1C137,15.6,135.33,14.43,133.74,13.21Z"/><path class="cls-1" d="M83.48,22.15c.44,1.38,1.37.86,2.35.77,1.22-.1,2.48.28,3.7-.18A12.33,12.33,0,0,0,83.48,22.15Z"/><path class="cls-1" d="M106,42.61c-1.88-.31-3.73-.53-4.37,2C102.79,43.29,104.53,43.27,106,42.61Z"/><path class="cls-1" d="M99.6,48.78c-1.09.79-1.57,1.49.27,1.85Z"/><path class="cls-1" d="M114.16,44.76c.12-.49.21-1-.43-1.2-.48-.15-.73.21-1,.53Z"/><path class="cls-1" d="M109.44,41.37l-2.3,1.21C108.36,43,109,42.39,109.44,41.37Z"/><path class="cls-1" d="M62.06,20.05c.44.26,1.13.43,1.26.8.88,2.51,3,2,4.84,2.09A9.39,9.39,0,0,0,62.06,20.05Z"/><path class="cls-1" d="M85.92,38.84a3.06,3.06,0,0,0,1.56-3.28Z"/><path class="cls-1" d="M44.94,57.35l1.56-3.29c-2.17-1.15-2.73.67-3.39,2-.36.7.1,1.21.9.68S44.62,57.18,44.94,57.35Z"/><path class="cls-1" d="M45.64,58.27l-.92-.45c-1,2.34-.94,2.76.32,4.18C45.85,60.85,44.85,59.42,45.64,58.27Z"/><path class="cls-1" d="M26,50.08l.3,3,1.38-2.91Z"/><path class="cls-1" d="M131.87,13.45a2.65,2.65,0,0,0,.72.56.73.73,0,0,0,.68-.18c.25-.47-.3-.34-.47-.44S132.25,12.9,131.87,13.45Z"/><path class="cls-1" d="M108,41c.13-.09.38-.2.36-.28a2.69,2.69,0,0,0-.26-.64c-.13.1-.32.18-.37.31A.41.41,0,0,0,108,41Z"/></g></g></svg>