<?xml version="1.0" encoding="UTF-8"?>
<svg id="_圖層_2" data-name="圖層 2" xmlns="http://www.w3.org/2000/svg" viewBox="0 0 192.06 251.97">
  <defs>
    <style>
      .cls-1 {
        fill: #d26a59;
      }

      .cls-2 {
        fill: #eba16d;
      }

      .cls-3 {
        fill: #eea97f;
      }

      .cls-4 {
        fill: #f0b6a2;
      }

      .cls-5 {
        fill: #3f260f;
      }

      .cls-6 {
        fill: #3e260f;
      }

      .cls-7 {
        fill: #eb664c;
      }

      .cls-8 {
        fill: #eab579;
      }

      .cls-9 {
        fill: #edae86;
      }

      .cls-10 {
        fill: #eb9c6a;
      }

      .cls-11 {
        fill: #eb7353;
      }

      .cls-12 {
        fill: #d86648;
      }

      .cls-13 {
        fill: #d65f4a;
      }

      .cls-14 {
        fill: #eaa46e;
      }

      .cls-15 {
        fill: #e8a272;
      }

      .cls-16 {
        fill: #ea9d6b;
      }
    </style>
  </defs>
  <g id="_圖層_1-2" data-name="圖層 1">
    <g>
      <g>
        <path class="cls-5" d="m92.06,175L7.06,215s9,19,11,19,78-53,78-53l-4-6Z"/>
        <path class="cls-5" d="m102.06,175l85,40s-9,19-11,19-78-53-78-53l4-6Z"/>
        <path class="cls-5" d="m101.72,178.72l-36.75,68.71s-15.36-8.26-15.27-9.92c.09-1.66,47.22-62.36,47.22-62.36l4.8,3.57Z"/>
        <path class="cls-5" d="m90.69,178.72l36.75,68.71s15.36-8.26,15.27-9.92c-.09-1.66-47.22-62.36-47.22-62.36l-4.8,3.57Z"/>
        <g>
          <path class="cls-7" d="m164.59,148.21v1.66c-.87,1.59-.21,3.31-.42,4.95.14,9.5-4.18,17.4-9.58,24.64-4.02,5.39-8.4,10.7-14.94,13.44-1.28.54-2.52,1.16-3.9,1.38-2.28.42-4.29-.27-6.18-1.47-1.18-2,.26-3.1,1.53-4.13,1.64-1.31,3.1-2.72,4.07-4.62,1.92-3.76,1.69-5.86-1.13-9.03-1.01-1.14-2.08-2.21-3.16-3.29-4.78-4.77-6.13-10.29-3.73-16.63-.01.03-.08.16-.1.2-3.85,4.45-6.14,9.18-4.02,15.24.74,2.12-.08,4.44-.9,6.49-.91,2.27-2.51,4.08-5.17,4.21-2.76.14-4.31-1.68-5.26-3.98-1.17-2.82-1.83-5.83-2.4-8.81-1.22-6.35-4.38-10.08-11.35-10.38-4.62-.2-9.35-.58-13.19-4.11-7.03-6.48-8.27-14.58-6.44-23.26,1.96-9.3,6.48-17.64,11-25.81-.07.08.05-.08.05-.08-6.51,7.17-13.69,13.71-19.56,21.48-2.86,3.79-5.19,7.86-7.29,12.06-2.41,4.8-.87,9.45,1.2,13.96,2.51,5.46,6.59,9.89,9.81,14.89,1.27,1.98,2.69,3.9,3.43,6.15,1.31,3.98-.56,6.6-4.73,6.63-3.3.02-6.24-1.06-8.74-3.27-1.1-.98-2.05-2.16-3.75-3.23.99,5.07,3.44,8.62,6.92,11.52,1.57,1.3,2.99,2.57,1.97,4.89-.91,1.11-2.07,1.71-3.5,1.74-1.67-.67-3.44-.59-5.18-.63-1.42.03-2.84-.04-4.25-.24-13.22-6.19-23.34-15.19-27.15-29.92,0-2.11-1.19-4.06-.84-6.22,0-1.11,0-2.22,0-3.33,0-3.84-.07-7.68.02-11.51.09-3.58.6-7.04,2.8-10.1,1.97-2.75,2.27-6.08,2.68-9.33,3.32-9.9,8.24-20.24,8.03-30.69-.05-2.57-.43-6.5-.53-6.63-2.18-3.16,3.76,3.25,4.65,5.7,1.18,3.24,1.87,6.61,2.36,9.95,2.19-1.12,2.65-3.32,4.35-4.68,1.3-3.9,2.25-6.26,2.31-9.64.08-4.6,1.09-9.01,2.75-13.27.7-1.8,5.81-9.87,6.64-8.71,1.57,2.47.56,10.33-.03,12.71-.32,1.24-.53,2.5-.22,3.74,1.53.84,1.97-.59,2.51-1.33,3.39-4.66,5.81-9.8,6.51-15.55.76-6.26-1.9-11.33-6.19-15.65-1.27-1.27-6.38-6.16-5.37-7.89,1.13-1.93,12.12,4.4,15.61,7.32,4.49,3.76,8.12,8.22,11.36,13.09,2.06,3.09,3.7,3.13,6.46.61,2.66-2.42,5.66-4.45,8.07-7.16,4.26-4.78,6.1-10.04,4.05-16.44-1.23-3.84-2.97-7.45-4.3-11.24C99.22,16.1,109.55-.99,111.82.04c1.33.98.67,22.26,6.52,30.27.16.22.3.46.47.68.93,1.2,1.93,2.34,2.79,3.6,5.02,6.91,10.36,13.64,11.86,22.43,1.57,9.23.97,18.14-3.94,26.36-2.9,4.85-2.96,4.78,1.5,8.25,1.63,1.27,3.33,2.45,5.02,3.63.93.68,1.72,1.51,2.55,2.3,1.72,1.62,2.09,4.4,4.59,5.25,1.82-3.8-.47-7.2-.89-10.75-.11-.43-.18-.85-.21-1.29-.03-2.97-.36-5.98,1.45-8.64,1.97-1.03,3.47.13,4.93,1.14,9.19,6.39,13.38,15.6,14.39,26.39.72,7.67.81,15.4.24,23.09-.26,3.48,1.23,6.7,1.09,10.13.2,1.77-.42,3.61.42,5.34Z"/>
          <path class="cls-4" d="m76.38,196.48c0-.25-.04-.5-.12-.74,2.53-3.3,5.95-1.81,9.11-1.67.91.57,2.03.99,1.83,2.4h-10.82Z"/>
          <path class="cls-2" d="m87.2,196.48c-.53-.3-1.05-.59-1.58-.89,1.29-2.73,2.64-2.61,4.05-.09-.27.33-.53.66-.8.99h-1.66Z"/>
          <path class="cls-1" d="m163.79,142.81c.27.14.53.27.8.41v4.99c-1.06-1.68-.82-3.56-.8-5.4Z"/>
          <path class="cls-1" d="m164.59,154.87c-.26.15-.53.29-.79.44-.06-1.86-.27-3.74.79-5.43v4.99Z"/>
          <path class="cls-8" d="m89.66,195.49c-1.37-.8-2.72-.82-4.05.09-3.12.05-6.24.1-9.35.15-6.14-.18-11.74-1.88-16.58-5.79-.47-.34-.45-.64.07-.9,1.56.6,3.15.96,4.83.85,1.33.06,3.03,1.38,3.63-1.06-4.38-3.47-8.48-7.17-10.22-12.77-.82-2.64-1.29-5.25-.38-7.91,1.62.08,1.73,1.25,2.34,1.93,1.58,1.74,2.98,3.72,4.83,5.12,2.89,2.2,6.89,4.72,9.76,2.18,2.76-2.44-.71-5.74-2.29-8.34-3.22-5.33-7.5-9.95-10.32-15.58-3.36-6.72-3.42-12.99.56-19.67,7.64-12.8,18.07-23.07,28.77-33.16,1.44,0,1.55.71.92,1.78-2.86,6.29-5.75,12.57-8.58,18.88-2.52,5.6-4.33,11.36-4.01,17.64.48,9.4,6.76,16.05,16.04,16.88.14.01.28.02.41.03,11.7,1.12,12.67,1.96,15.54,13.39.64,2.55,1.26,5.1,2.04,7.61.42,1.35,1.25,2.57,2.85,2.68,1.77.12,2.83-1.09,3.46-2.52,1.03-2.3,1.9-4.8.93-7.24-2.52-6.35.38-10.94,4.57-15.19,1.06-1.08,2.23-2.05,3.35-3.07.6-.43,1.19-.51,1.77.02-4.18,8.49-3.58,13.25,2.48,19.57,8.11,8.45,7.54,13.61-2.22,20.17-.46.31-.9.65-1.35.97-.51,1.09-1.54.85-2.43.96-3.32.66-6.65,1.27-9.99.07-4.26-1.26-8.51-.32-12.76.07-.68.34-1.58.03-2.15.7-4.2.12-8.22,1.71-12.46,1.46Z"/>
          <path class="cls-7" d="m28.87,151.76c-.21-.12-.42-.23-.63-.34-1.46-8.12-.44-15.89,3.29-23.27,1.31-2.58,2.65-5.14,3.98-7.7.27,2.31-.45,4.42-1.68,6.27-4.23,6.39-5.43,13.43-4.9,20.92.1,1.37-.04,2.75-.06,4.13Z"/>
          <path class="cls-12" d="m127.02,193.19c.81-.32,1.62-.64,2.43-.96,2-.03,4.01-.06,6.01-.08-2.74.95-5.42,2.37-8.44,1.04Z"/>
          <path class="cls-11" d="m68.21,188.84c.75.25,1.92.36,1.86,1.22-.07,1.11-1.29.74-1.98.65-1.18-.14-2.34-.53-3.5-.82,1.28-.1,2.56-.2,3.62-1.06Z"/>
          <path class="cls-13" d="m117.01,32.51c1.64.52,2.14,1.84,2.39,3.35-1.1-.9-1.98-1.95-2.39-3.35Z"/>
          <path class="cls-9" d="m59.75,189.05c-.02.3-.04.6-.07.9-1.22-.14-2.55,0-3.3-1.32,1.24-.78,2.29-.1,3.37.42Z"/>
          <path class="cls-14" d="m92.18,102.42c-.31-.59-.61-1.19-.92-1.78.33-.44.83-1.05,1.28-.65.95.85.19,1.68-.36,2.43Z"/>
          <path class="cls-10" d="m130.55,151.53c-.59,0-1.18-.01-1.77-.02.5-.58.9-1.38,1.86-.99.09.04-.05.65-.09,1Z"/>
          <path class="cls-16" d="m103.83,193.13c5.18-1.74,10.48-.37,16.01-.87-.93,1.26-2,.65-2.8,1-2.96-.01-5.92-.03-8.88-.04-1.45.49-2.89.61-4.32-.09Z"/>
          <path class="cls-3" d="m103.83,193.13c1.44.03,2.88.06,4.32.09-1.92.91-4,.69-6.03.81.57-.3,1.14-.6,1.71-.9Z"/>
        </g>
        <path class="cls-15" d="m192.06,224c0,6.08-5.36,11-11.98,11s-13.02-5.92-13.02-12,9.01-9,15.62-9,9.38,3.92,9.38,10Z"/>
        <path class="cls-15" d="m145.06,243.6c0,4.62-4.18,8.36-9.34,8.36s-10.16-4.51-10.16-9.12,7.03-6.84,12.19-6.84,7.31,2.98,7.31,7.6Z"/>
        <path class="cls-15" d="m1.62,220.19c-3.13,5.06-1.59,11.69,3.46,14.82,5.04,3.12,12.98,1.21,16.12-3.85,3.13-5.06-2.22-11.75-7.27-14.87-5.04-3.12-9.17-1.16-12.31,3.9Z"/>
        <path class="cls-15" d="m48.06,239c-1.88,3.04-.46,8.72,3.89,11.42,4.35,2.7,11.23.62,13.11-2.42s-3.96-6.46-8.32-9.15c-4.35-2.7-6.8-2.89-8.68.15Z"/>
      </g>
      <path class="cls-6" d="m139.3,238.62c-1.04.25-2.07-.38-3.12-.14-.5.11-.91.41-1.3.72-.54.42-1.09.82-1.68,1.18-1.47.89-3.57,1.66-3.85,3.6-.32,2.25,1.89,3.66,3.56,4.62.94.54,1.99,1.04,3.1.98s2.11-.6,3.05-1.09c1.45-.75,4.41-2.09,4.1-4.15-.27-1.84-2.72-2.66-4.31-2.65-2.15.01-4.07,1.21-5.66,2.56-.68.58-.95,1.32-.23,2.02.63.61,1.63.77,2.47.71.98-.07,1.92-.43,2.68-1.06.56-.46,1.52-1.47,1.12-2.29s-1.97-.83-2.6-.4-.7,1.42,0,1.8c.42.23.8-.41.38-.65-.24-.13-.08-.43.06-.55.16-.13.42-.11.62-.11.48.02.97.11.75.67-.24.61-.96,1.12-1.51,1.4s-1.21.44-1.84.43c-.7-.01-2.32-.36-1.53-1.32.46-.56,1.24-1.01,1.86-1.39.72-.44,1.49-.79,2.32-.97,1.37-.3,2.95-.08,4.02.88,1.58,1.42-.22,2.73-1.46,3.49-.63.39-1.27.74-1.93,1.07-.8.4-1.67.84-2.58.83-.83,0-1.6-.38-2.31-.77s-1.45-.82-2.08-1.34c-1.26-1.05-1.86-2.74-.54-3.99,1.12-1.06,2.69-1.6,3.92-2.51.36-.27.71-.6,1.11-.82.47-.26.95-.25,1.47-.16.73.12,1.41.29,2.15.11.47-.11.27-.84-.2-.72h0Z"/>
      <path class="cls-6" d="m183.49,215.98c-3.6.17-7.15,1.21-10.2,3.14-1.28.81-2.49,1.84-2.77,3.4s.36,3.17,1.28,4.43c1.97,2.72,4.57,4.86,7.99,5.23,1.76.19,3.53,0,5.28-.26,1.33-.2,3.01-.3,4.02-1.32,1.13-1.13.63-2.66.13-3.96-.77-2.02-.62-3.9-.17-5.98.25-1.13.2-2.43-1.19-2.67-.59-.1-1.21.05-1.77.21-1.04.3-2.07.65-3.11.97-2.78.87-6.96,2.02-6.96,5.68,0,2.94,3.46,4.03,5.88,3.57,1.38-.26,2.8-1.09,3.21-2.52.33-1.15,0-2.62-1.11-3.25-1.18-.67-3.34-.14-3.91,1.18-.24.56,0,1.14.48,1.48.67.48,1.5.26,2.21.03.46-.15.26-.87-.2-.72-.28.09-.75.3-1.04.24l-.53-1.02c.19-.16.39-.3.61-.42.7-.36,1.63-.5,2.26.07.89.79.73,2.3-.02,3.12-1.48,1.63-4.75,1.57-6.3.07-.97-.93-.97-2.3-.35-3.43.72-1.33,2.11-2.05,3.47-2.55,1.16-.43,2.35-.76,3.53-1.13.87-.27,3.18-1.44,4.02-.62.46.45.13,1.31.02,1.82-.12.56-.23,1.11-.3,1.68-.16,1.3-.1,2.59.33,3.83.36,1.06,1.19,2.42.5,3.51-.66,1.03-2.23,1.14-3.32,1.31-2.49.39-5.17.73-7.61-.08s-4.44-2.87-5.75-4.93c-.81-1.28-1.3-2.95-.53-4.37.7-1.28,2.19-2.08,3.44-2.73,2.62-1.37,5.52-2.13,8.47-2.26.48-.02.48-.77,0-.75h0Z"/>
      <path class="cls-6" d="m60.7,242.7c-1.02-.66-2.03-1.35-3.08-1.97-.95-.56-1.91-.72-3.01-.72s-2.21-.03-3.3.03c-.8.04-1.32.45-1.58,1.21-.55,1.61-.27,3.78.71,5.16,1.06,1.49,2.96,2.44,4.67,2.97,1.87.57,3.89.66,5.8.24.81-.18,1.71-.46,2.18-1.2.43-.67.36-1.52-.27-2.04-.37-.3-.85-.47-1.28-.67-.56-.27-1.12-.53-1.68-.8-1-.48-1.99-.99-3-1.42-.81-.34-1.71-.55-2.55-.19-.65.28-1.14.87-1.14,1.6,0,.93.75,1.63,1.56,1.98.51.22,1.07.33,1.61.46.51.12,1.06.33,1.59.28.71-.06,1.34-.81.82-1.46-.24-.3-.63-.42-.98-.51-.66-.18-1.33-.36-1.99-.54-.47-.13-.67.6-.2.72.72.19,1.47.35,2.18.59.16.05.56.13.22.44-.08.07-.52-.04-.62-.06-.43-.08-.86-.2-1.29-.3-.7-.17-1.53-.36-1.96-1.01-.47-.73.01-1.45.79-1.62s1.54.22,2.21.54c.75.35,1.5.71,2.24,1.07.67.32,1.35.64,2.02.96.3.14.68.27.93.49.52.45.26,1.1-.23,1.44-1.08.75-2.83.78-4.09.73-1.4-.06-2.8-.4-4.06-1s-2.58-1.42-3.2-2.7c-.55-1.14-.72-2.82-.26-4.02.34-.87,1.46-.63,2.23-.64.87,0,1.75-.06,2.62,0,1.02.07,1.79.52,2.63,1.05.79.51,1.58,1.01,2.37,1.52.41.26.78-.39.38-.65h0Z"/>
      <path class="cls-6" d="m14.18,218.78c-.57-.26-1.14-.29-1.76-.32-.95-.04-1.91-.07-2.85.02-1.34.12-2.69.45-3.82,1.22-2.52,1.72-2.75,5.12-2.69,7.92.03,1.44.43,2.66,1.62,3.54,1.25.93,2.58,1.93,4.02,2.56,2.49,1.08,5.5.94,7.57-.94.99-.9,1.59-2.08,1.77-3.4s.27-3.15-.54-4.35c-1.54-2.26-4.49-3.09-7.05-3.4-1.14-.14-2.59-.37-3.51.5s-.88,2.21-.69,3.34c.4,2.46,2.01,6.02,5.1,5.1,1.39-.41,2.19-1.33,2.37-2.77.15-1.23.19-2.62-1.14-3.16-1.13-.46-2.78-.1-3.04,1.26-.3,1.54,1.47,2,2.61,1.71.34-.08.38-.66,0-.72-.21-.03-.33-.04-.54.02-.47.12-.27.84.2.72l.14-.02v-.72c-.67.17-2.14-.01-1.58-1.1.3-.58,1.08-.67,1.64-.54,1.27.28,1.13,1.75.93,2.77-.23,1.18-1.29,1.92-2.48,1.95-1.26.04-2.15-1.03-2.66-2.07-.67-1.37-1.91-5.15.48-5.61.95-.18,2.07.05,3.01.21,1.03.18,2.07.45,3.02.9.87.41,1.69.96,2.31,1.7.87,1.02.83,2.42.74,3.7-.15,2.13-1.47,3.87-3.51,4.56-2.17.73-4.46.06-6.32-1.15-.9-.58-1.88-1.18-2.69-1.88-.94-.82-1.04-2.06-1.01-3.23.06-2.47.17-5.41,2.5-6.87,1.06-.66,2.3-.93,3.53-1.02.67-.04,1.33-.04,2-.02s1.36-.03,1.95.24c.44.2.82-.45.38-.65h0Z"/>
    </g>
  </g>
</svg>