<svg width="153" height="152" viewBox="0 0 153 152" fill="none" xmlns="http://www.w3.org/2000/svg">
<g clip-path="url(#clip0_207_717)">
<path d="M85.7622 130.613C76.7676 135.108 64.0439 139.482 54.5406 134.779C37.6031 126.409 28.3048 108.985 23.4379 76.5045C18.9704 46.6962 33.5506 37.7837 36.5159 36.3018L37.0577 36.0311C39.3004 35.0478 41.7391 34.5928 44.1859 34.7011C46.6328 34.8094 49.0226 35.4781 51.1714 36.6558C56.9995 39.7449 61.1434 45.9431 63.7205 50.9525C65.6654 44.7925 69.2207 34.8578 75.8607 31.5397C79.5649 29.6887 85.0183 30.5003 89.4866 32.1247C91.9406 32.962 94.1923 34.3045 96.0965 36.0655C98.0008 37.8266 99.5153 39.9672 100.542 42.3492C102.957 47.6 102.052 54.1895 101.343 58.9308C103.009 57.6992 104.773 56.6073 106.618 55.6661C114.5 51.7277 121.594 52.6439 127.683 58.3997C141.68 71.6277 129.599 88.5465 118.951 103.43C111.79 113.442 98.7663 124.115 85.7622 130.613Z" fill="#B61C31"/>
<path d="M37.7672 38.8063L38.1415 38.6192C51.1754 33.3383 60.1087 47.1745 63.4103 54.6932C63.9721 55.9652 65.3859 55.7886 65.7502 54.4482C67.2913 48.6625 70.1913 38.2542 76.9889 34.8574C79.836 33.4346 83.4516 31.6279 89.4865 33.8249C101.537 38.8943 103.49 52.9776 98.5547 60.7673C97.8061 61.9548 99.5648 62.4931 100.648 61.6065C102.66 60.0057 104.86 58.6579 107.2 57.5934C110.202 55.9608 113.654 55.3479 117.036 55.8469C120.418 56.3458 123.547 57.9296 125.954 60.3601C137.118 70.9494 129.229 84.1592 116.763 101.664C110.006 111.203 97.2385 121.723 84.4313 128.123C73.5945 133.538 62.777 135.962 55.4167 132.32C39.3167 124.345 30.5604 107.216 25.935 76.3037C21.7239 48.1665 35.2304 40.0616 37.6933 38.8309M35.1851 33.8116C31.9439 35.4313 16.0436 45.1022 20.7774 76.7491C23.2331 93.1198 26.8704 105.745 31.8522 115.296C37.2134 125.531 44.2639 132.742 53.511 137.277C63.9602 142.444 77.4524 137.883 86.9395 133.142C100.259 126.487 113.612 115.513 120.99 105.196C128.092 95.2389 132.943 87.6266 135.179 80.4957C138.143 71.0289 136.147 62.9195 129.264 56.3401C124.514 51.7631 116.415 47.5291 105.302 53.0822L104.317 53.5745C105.41 48.9617 105.178 45.9105 103.424 42.0796C102.24 39.3644 100.513 36.9205 98.3488 34.8989C96.1845 32.8773 93.6291 31.321 90.8407 30.3262C85.7221 28.5092 79.0964 28.6777 74.8011 30.8241C69.9541 33.2462 66.5458 37.833 64.1819 42.5634C64.0722 42.7898 63.906 42.9841 63.6994 43.1276C63.4928 43.271 63.2527 43.3587 63.0022 43.3824C62.7518 43.406 62.4994 43.3647 62.2695 43.2624C62.0395 43.1601 61.8397 43.0004 61.6893 42.7985C59.1952 39.2897 55.9628 36.3703 52.2199 34.2459C49.7417 32.9085 46.9945 32.147 44.1826 32.0181C41.3706 31.8893 38.5663 32.3963 35.9782 33.5016C35.8895 33.5459 35.6432 33.669 35.2886 33.8462L35.1851 33.8116Z" fill="white"/>
</g>
<defs>
<clipPath id="clip0_207_717">
<rect width="115" height="112" fill="white" transform="translate(0 51.4062) rotate(-26.5519)"/>
</clipPath>
</defs>
</svg>
