<?xml version="1.0" encoding="UTF-8"?>
<svg id="_圖層_2" data-name="圖層 2" xmlns="http://www.w3.org/2000/svg" viewBox="0 0 799.47 513.6">
  <defs>
    <style>
      .cls-1 {
        fill: #6a6b68;
      }

      .cls-2 {
        fill: #81a54c;
      }
    </style>
  </defs>
  <g id="_圖層_1-2" data-name="圖層 1">
    <g>
      <path class="cls-2" d="m105.83,467.16c10.68-1.88,10.76-7.96,13.05-10.4-1.16-2.76-4.07-3.74-5.96-5.79-4.26-4.59-4.39-5.12,1.17-7.99,6.54-3.37,11.11-8.1,12.79-15.5.63-2.79,2.13-5.39,3.24-8.08-.68-.97.85-2.62-.52-3.07-1.53-.5-2.05,1.15-2.75,2.23-.26.41-.79.64-1.2.96-8.76,11.7-19.74,19.35-34.94,19.23,1.72-1.16,3.78-1.7,5.54-2.74.99-.59,3.36-.01,2.8-2.05-.34-1.26-2.18-1.13-3.49-1.37-2.89-.52-5.73-1.19-8.22-2.95-2.93-2.06-3.17-3.62-.37-5.96,2.33-1.95,4.8-3.8,7.91-4.43,13.31-8.28,21.25-21.71,32.01-32.49-2.93-.45-5.27.37-7.16,1.78-7.74,5.77-16.04,4.84-24.54,2.45-.71.05-1.49-.13-1.63-.83-.22-1.12.77-.78,1.3-.73,2.24.2,4.16-.59,5.99-1.74,1.31-.9,2.52-2.01,3.93-2.68,4.47-2.12,8.54-4.67,11.55-8.74,4.8-6.51,9.7-12.94,14.56-19.41,1.66-3.12.62-4.43-2.77-5.31-6.51-1.69-11.43-5.53-13.86-12.1-2.11-5.71.33-9.53,6.25-9.38,4.15.11,7.94-.73,11.37-3.1,6.76-3.88,7.92-11.9,12.75-17.33,3.16-3.56,2.01-5.27-2.55-6.96-1.12-.41-2.39-.55-3.37-1.16-4.67-2.91-9.15-6.8-6.11-11.23,2.16-3.16,4.52-5.98,8.74-6.61,3.64-.54,6.08-2.6,6.77-6.5.37-2.1.79-4.39,1.91-6.12,3.59-5.55,4.85-11.64,5.06-18.08.13-4.05.21-8.11.42-12.16.24-4.72.53-9.44.91-14.16.11-1.36.59-2.75,2.3-2.9,1.44-.13,1.83,1.09,2.06,2.1,1.21,5.29,4.17,9.86,6.02,14.88,1.51,2.37.63,5,.68,7.49.12,6.46-.59,12.98,1.86,19.22h0c1.35,1.14.72,2.77.84,4.13.24,2.71.58,5.37,2.32,7.5,3.21,3.92,4.69,8.31,4.19,13.35,1.79,4.4,6.05,5.82,9.67,8,3.69,2.22,4.02,3.76,1.72,7.82-.43,1.41-1.38,2.39-2.33,3.5-1.39,1.65-3.23,3.68-.95,6.09.74.04,1.36.35,1.48,1.11.87,5.64,4.02,9.15,9.54,10.74,2.43.7,4.7,1.98,7.07,2.92,5.09,2,9.66,4.74,13.15,9.05,2.15,2.66,1.73,4.64-1.31,6.23-.6.29-1.17.68-1.81.84-3.68.94-5.86,2.43-2.64,6.28.38.45.69,1.27,0,1.8-.74.55-1.48.12-2.25-.15-5.23-1.86-10.23-4.35-16.14-3.89-3.26.25-4.14,1.08-2.84,4.02.22-.11.38-.05.49.16,2.13,2.9,4.49,5.58,6.88,8.27,4.25,4.8,10.23,7.56,14.26,12.57,2.7,3.36,6.27,4.96,10.67,4.85,2.14-.05,4.12.6,6.19,1.49,4.12,1.78,7.18,4.74,10.3,7.7,3.96,3.76,7.91,7.41,13.94,7.28,2.29-.05,3.85,1.81,5.79,2.71.55.26,1.3.92.78,1.58-.6.77-1.42.39-2.06-.23-2.57.05-5.14.09-7.71.17-1.98.06-3.33.91-3.63,3.01,1.26,1.65,2.52,3.3,4.28,5.6-2.17-.5-3.56-.63-4.35-2.11-2.23.14-4.09-1.05-6.08-1.74-5.1-1.78-9.83-4.71-15.47-4.76-4.74-.04-4.74-.05-3.53,4.37,1.58,1.04,1.11,3.16,2.3,4.41,2.22,2.34,4.17,4.85,4.9,8.1,3.4,5.33,8.25,9.16,13.28,12.8,2.03,1.46,3.8,3.09,4.34,5.97-3.07-.86-5.69-1.85-8.4-2.31-12.28-2.1-22.2-8.3-30.66-17.16-6.65-5.67-12.12-12.45-17.93-18.92-.87-.97-1.66-2.68-3.13-1.96-1.14.56-.34,2.16-.16,3.28.4,2.48,1.6,4.81,1.29,7.41,1.48,2.05,1.21,4.68,2.3,6.85,2.25,4.02,4.5,8.04,6.75,12.06,3.18,3.09,6.83,6.03,8.36,10.19,2.43,6.59,7.46,10.63,12.51,14.86,3.29,2.76,6.33,5.8,9.58,8.61,1.48,1.28.7,2.82.52,4.1-.14.92-1.31.23-1.98-.2-7.18-.52-14.35-1.08-21.54-1.51-.88-.05-2.28-.77-2.69.82-.29,1.14.74,1.66,1.44,2.21,1.14.91,2.4,1.67,3.6,2.51,5.05,3.52,10.6,6.33,15.2,10.5-49.09,0-69.79-1.35-118.87-1.23-2.88,0,5.03-11.92,5.03-11.92Z"/>
      <path class="cls-2" d="m303.85,492.54c16.23-2.86,16.35-12.1,19.84-15.8-1.76-4.2-6.18-5.69-9.06-8.79-6.47-6.97-6.67-7.78,1.78-12.14,9.94-5.13,16.89-12.31,19.44-23.56.96-4.25,3.24-8.2,4.92-12.28-1.04-1.48,1.29-3.99-.79-4.67-2.32-.76-3.11,1.75-4.17,3.39-.4.62-1.2.98-1.82,1.46-13.32,17.78-29.99,29.4-53.09,29.22,2.62-1.76,5.75-2.58,8.42-4.17,1.5-.89,5.11-.02,4.26-3.11-.52-1.91-3.32-1.72-5.3-2.08-4.39-.79-8.71-1.82-12.49-4.48-4.45-3.14-4.81-5.5-.57-9.06,3.54-2.97,7.3-5.78,12.03-6.73,20.23-12.59,32.3-32.99,48.64-49.37-4.45-.68-8.01.57-10.88,2.71-11.76,8.77-24.37,7.35-37.28,3.72-1.09.07-2.27-.2-2.48-1.26-.34-1.7,1.18-1.19,1.98-1.11,3.4.31,6.32-.9,9.1-2.64,1.98-1.37,3.83-3.05,5.98-4.07,6.8-3.22,12.98-7.1,17.55-13.28,7.3-9.88,14.74-19.67,22.12-29.49,2.52-4.74.94-6.74-4.2-8.07-9.89-2.57-17.37-8.41-21.05-18.39-3.2-8.68.5-14.48,9.5-14.25,6.3.16,12.07-1.11,17.27-4.71,10.28-5.9,12.03-18.09,19.37-26.33,4.81-5.41,3.05-8-3.88-10.58-1.7-.63-3.63-.84-5.13-1.77-7.1-4.42-13.91-10.33-9.29-17.07,3.28-4.79,6.86-9.09,13.28-10.05,5.53-.82,9.24-3.95,10.29-9.88.56-3.19,1.19-6.67,2.9-9.3,5.46-8.43,7.37-17.69,7.69-27.47.2-6.16.32-12.32.63-18.48.36-7.18.81-14.35,1.39-21.51.17-2.06.9-4.17,3.5-4.41,2.19-.2,2.78,1.66,3.13,3.19,1.84,8.03,6.34,14.98,9.14,22.6,2.3,3.61.96,7.6,1.03,11.38.18,9.82-.89,19.73,2.82,29.2h0c2.05,1.74,1.1,4.21,1.28,6.28.37,4.11.87,8.16,3.53,11.4,4.88,5.96,7.12,12.62,6.37,20.28,2.72,6.68,9.19,8.84,14.7,12.15,5.6,3.37,6.11,5.71,2.61,11.88-.65,2.14-2.1,3.63-3.53,5.32-2.12,2.5-4.91,5.59-1.44,9.25,1.13.06,2.07.53,2.25,1.69,1.32,8.57,6.1,13.9,14.5,16.32,3.7,1.07,7.13,3.02,10.74,4.43,7.74,3.04,14.68,7.21,19.98,13.76,3.27,4.05,2.63,7.04-2,9.47-.91.43-1.78,1.03-2.74,1.27-5.59,1.43-8.9,3.7-4.01,9.55.57.69,1.05,1.94-.01,2.73-1.12.84-2.25.19-3.43-.23-7.95-2.83-15.54-6.62-24.53-5.91-4.95.39-6.29,1.64-4.32,6.11.33-.16.58-.08.75.25,3.23,4.4,6.83,8.48,10.45,12.57,6.46,7.29,15.55,11.48,21.68,19.11,4.11,5.11,9.53,7.54,16.21,7.37,3.25-.08,6.27.91,9.4,2.26,6.26,2.7,10.91,7.2,15.65,11.7,6.01,5.71,12.03,11.26,21.18,11.07,3.48-.07,5.85,2.76,8.79,4.12.84.39,1.97,1.39,1.18,2.4-.91,1.17-2.16.59-3.13-.35-3.9.08-7.81.14-11.71.25-3,.09-5.06,1.39-5.52,4.57,1.92,2.51,3.84,5.02,6.51,8.51-3.3-.76-5.41-.96-6.61-3.2-3.39.22-6.22-1.59-9.23-2.65-7.75-2.71-14.94-7.16-23.51-7.23-7.2-.05-7.2-.08-5.37,6.63,2.4,1.59,1.69,4.8,3.5,6.7,3.38,3.56,6.34,7.38,7.45,12.31,5.17,8.1,12.53,13.93,20.18,19.45,3.08,2.22,5.77,4.69,6.6,9.07-4.67-1.31-8.65-2.81-12.76-3.51-18.65-3.2-33.74-12.61-46.58-26.08-10.1-8.62-18.42-18.92-27.24-28.75-1.32-1.47-2.52-4.08-4.76-2.97-1.74.86-.51,3.28-.24,4.99.6,3.76,2.44,7.31,1.96,11.27,2.25,3.11,1.83,7.11,3.49,10.41,3.42,6.11,6.84,12.21,10.26,18.32,4.83,4.69,10.37,9.17,12.7,15.48,3.69,10.02,11.34,16.15,19.01,22.58,5,4.19,9.62,8.82,14.56,13.09,2.25,1.95,1.07,4.29.78,6.23-.21,1.4-1.99.34-3-.3-10.91-.79-21.81-1.64-32.73-2.3-1.34-.08-3.47-1.17-4.09,1.25-.44,1.73,1.13,2.52,2.19,3.36,1.74,1.38,3.65,2.54,5.47,3.81,7.68,5.35,16.1,9.62,23.1,15.95-74.59,0-106.04-2.05-180.63-1.87-4.38.01,7.64-18.12,7.64-18.12Z"/>
      <path class="cls-2" d="m203.87,496.06c14.24-2.51,14.34-10.62,17.41-13.86-1.55-3.69-5.42-4.99-7.95-7.72-5.67-6.12-5.85-6.83,1.57-10.66,8.72-4.5,14.82-10.8,17.05-20.67.85-3.73,2.84-7.19,4.32-10.78-.91-1.3,1.13-3.5-.7-4.1-2.04-.67-2.73,1.54-3.66,2.97-.35.54-1.05.86-1.6,1.28-11.68,15.61-26.32,25.8-46.58,25.64,2.3-1.55,5.04-2.26,7.39-3.66,1.31-.78,4.48-.02,3.74-2.73-.46-1.67-2.91-1.51-4.65-1.82-3.86-.7-7.64-1.59-10.96-3.93-3.91-2.75-4.22-4.83-.5-7.95,3.11-2.61,6.4-5.07,10.55-5.9,17.75-11.05,28.34-28.95,42.68-43.32-3.91-.6-7.03.5-9.55,2.38-10.32,7.7-21.39,6.45-32.71,3.26-.95.06-1.99-.18-2.18-1.1-.3-1.49,1.03-1.04,1.74-.98,2.98.27,5.55-.79,7.99-2.32,1.74-1.21,3.36-2.68,5.25-3.57,5.97-2.82,11.39-6.23,15.4-11.66,6.41-8.67,12.93-17.26,19.41-25.88,2.21-4.16.82-5.91-3.69-7.08-8.68-2.26-15.25-7.38-18.47-16.14-2.81-7.62.43-12.7,8.34-12.5,5.53.14,10.59-.97,15.16-4.14,9.02-5.17,10.56-15.87,16.99-23.11,4.22-4.74,2.68-7.02-3.4-9.28-1.49-.55-3.19-.73-4.5-1.55-6.23-3.88-12.21-9.06-8.15-14.98,2.88-4.21,6.02-7.98,11.65-8.82,4.85-.72,8.11-3.46,9.03-8.67.49-2.8,1.05-5.85,2.54-8.16,4.79-7.4,6.47-15.52,6.75-24.1.18-5.4.28-10.81.55-16.21.32-6.3.71-12.59,1.22-18.87.15-1.81.79-3.66,3.07-3.87,1.92-.18,2.44,1.46,2.75,2.8,1.61,7.05,5.56,13.14,8.02,19.84,2.02,3.16.84,6.66.9,9.99.16,8.62-.78,17.31,2.47,25.62h0c1.8,1.53.96,3.7,1.13,5.51.32,3.61.77,7.16,3.09,10,4.28,5.23,6.25,11.08,5.59,17.8,2.38,5.87,8.06,7.76,12.9,10.66,4.92,2.96,5.36,5.01,2.29,10.43-.57,1.88-1.84,3.19-3.1,4.67-1.86,2.19-4.31,4.9-1.27,8.12.99.06,1.82.47,1.97,1.48,1.16,7.52,5.36,12.19,12.72,14.32,3.25.94,6.26,2.65,9.42,3.89,6.79,2.67,12.88,6.32,17.53,12.07,2.87,3.55,2.3,6.18-1.75,8.31-.8.38-1.56.9-2.41,1.12-4.9,1.25-7.81,3.24-3.52,8.38.5.6.92,1.7,0,2.39-.99.73-1.97.16-3.01-.2-6.98-2.49-13.64-5.8-21.52-5.19-4.34.34-5.52,1.44-3.79,5.36.29-.14.51-.07.66.22,2.84,3.86,5.99,7.44,9.17,11.03,5.67,6.4,13.64,10.08,19.02,16.77,3.6,4.48,8.36,6.61,14.23,6.47,2.85-.07,5.5.8,8.25,1.99,5.5,2.37,9.57,6.31,13.73,10.27,5.28,5.01,10.55,9.88,18.58,9.71,3.05-.06,5.13,2.42,7.71,3.62.73.34,1.73,1.22,1.04,2.11-.8,1.03-1.9.52-2.74-.31-3.43.07-6.85.12-10.28.22-2.63.08-4.44,1.22-4.84,4.01,1.68,2.2,3.37,4.4,5.71,7.47-2.89-.67-4.74-.84-5.8-2.81-2.97.19-5.45-1.4-8.1-2.32-6.8-2.38-13.11-6.28-20.63-6.34-6.32-.05-6.31-.07-4.71,5.82,2.11,1.39,1.48,4.21,3.07,5.88,2.97,3.13,5.57,6.47,6.54,10.8,4.54,7.1,11,12.22,17.71,17.07,2.7,1.95,5.07,4.12,5.79,7.96-4.1-1.15-7.59-2.46-11.2-3.08-16.37-2.81-29.6-11.07-40.88-22.89-8.86-7.56-16.16-16.6-23.9-25.23-1.16-1.29-2.21-3.58-4.18-2.61-1.52.75-.45,2.88-.21,4.38.53,3.3,2.14,6.42,1.72,9.89,1.97,2.73,1.61,6.24,3.06,9.14,3,5.36,6,10.72,9.01,16.08,4.24,4.12,9.1,8.04,11.14,13.58,3.24,8.79,9.95,14.17,16.68,19.81,4.38,3.68,8.44,7.74,12.77,11.48,1.97,1.71.94,3.77.69,5.46-.18,1.23-1.75.3-2.64-.27-9.57-.69-19.14-1.44-28.72-2.02-1.17-.07-3.05-1.03-3.59,1.09-.39,1.52.99,2.21,1.92,2.95,1.53,1.21,3.2,2.23,4.8,3.34,6.74,4.69,14.13,8.44,20.27,14-65.45,0-93.05-1.8-158.5-1.64-3.85,0,6.7-15.9,6.7-15.9Z"/>
      <path class="cls-1" d="m291.62,458.14c8.36-1.47,8.42-6.23,10.21-8.14-.91-2.16-3.18-2.93-4.67-4.53-3.33-3.59-3.43-4.01.92-6.25,5.12-2.64,8.69-6.34,10.01-12.13.5-2.19,1.67-4.22,2.53-6.32-.53-.76.67-2.05-.41-2.4-1.2-.39-1.6.9-2.15,1.74-.21.32-.62.5-.94.75-6.86,9.16-15.44,15.14-27.33,15.04,1.35-.91,2.96-1.33,4.33-2.15.77-.46,2.63,0,2.19-1.6-.27-.98-1.71-.88-2.73-1.07-2.26-.41-4.49-.93-6.43-2.31-2.29-1.62-2.48-2.83-.29-4.67,1.82-1.53,3.76-2.97,6.19-3.46,10.41-6.48,16.63-16.99,25.05-25.42-2.29-.35-4.12.29-5.6,1.4-6.05,4.52-12.55,3.79-19.2,1.92-.56.04-1.17-.1-1.28-.65-.17-.87.61-.61,1.02-.57,1.75.16,3.25-.46,4.69-1.36,1.02-.71,1.97-1.57,3.08-2.09,3.5-1.66,6.68-3.66,9.03-6.84,3.76-5.09,7.59-10.13,11.39-15.19,1.3-2.44.48-3.47-2.16-4.16-5.09-1.32-8.95-4.33-10.84-9.47-1.65-4.47.26-7.46,4.89-7.34,3.25.08,6.22-.57,8.89-2.43,5.29-3.04,6.19-9.31,9.97-13.56,2.48-2.78,1.57-4.12-2-5.45-.87-.32-1.87-.43-2.64-.91-3.65-2.28-7.16-5.32-4.78-8.79,1.69-2.47,3.53-4.68,6.84-5.17,2.85-.42,4.76-2.03,5.3-5.09.29-1.64.61-3.43,1.49-4.79,2.81-4.34,3.79-9.11,3.96-14.14.1-3.17.17-6.35.33-9.51.19-3.69.42-7.39.72-11.08.09-1.06.46-2.15,1.8-2.27,1.13-.1,1.43.86,1.61,1.64.95,4.14,3.26,7.71,4.71,11.64,1.18,1.86.49,3.91.53,5.86.09,5.06-.46,10.16,1.45,15.04h0c1.05.9.57,2.17.66,3.23.19,2.12.45,4.2,1.82,5.87,2.51,3.07,3.67,6.5,3.28,10.44,1.4,3.44,4.73,4.55,7.57,6.26,2.89,1.73,3.15,2.94,1.34,6.12-.34,1.1-1.08,1.87-1.82,2.74-1.09,1.29-2.53,2.88-.74,4.77.58.03,1.07.27,1.16.87.68,4.41,3.14,7.16,7.47,8.4,1.9.55,3.67,1.55,5.53,2.28,3.98,1.57,7.56,3.71,10.29,7.08,1.69,2.08,1.35,3.63-1.03,4.88-.47.22-.92.53-1.41.66-2.88.74-4.58,1.9-2.07,4.92.3.35.54,1,0,1.4-.58.43-1.16.1-1.76-.12-4.09-1.46-8-3.41-12.63-3.04-2.55.2-3.24.85-2.22,3.14.17-.08.3-.04.39.13,1.66,2.27,3.52,4.37,5.38,6.47,3.32,3.75,8.01,5.91,11.16,9.84,2.11,2.63,4.91,3.88,8.35,3.79,1.67-.04,3.23.47,4.84,1.16,3.23,1.39,5.62,3.71,8.06,6.03,3.1,2.94,6.19,5.8,10.9,5.7,1.79-.04,3.01,1.42,4.53,2.12.43.2,1.02.72.61,1.24-.47.6-1.11.3-1.61-.18-2.01.04-4.02.07-6.03.13-1.55.05-2.6.72-2.84,2.36.99,1.29,1.98,2.58,3.35,4.38-1.7-.39-2.78-.5-3.4-1.65-1.75.11-3.2-.82-4.75-1.36-3.99-1.39-7.69-3.69-12.1-3.72-3.71-.03-3.71-.04-2.76,3.42,1.24.82.87,2.47,1.8,3.45,1.74,1.83,3.27,3.8,3.84,6.34,2.66,4.17,6.45,7.17,10.39,10.02,1.59,1.15,2.97,2.42,3.4,4.67-2.41-.67-4.45-1.44-6.57-1.81-9.6-1.65-17.37-6.5-23.99-13.43-5.2-4.44-9.49-9.74-14.03-14.8-.68-.76-1.3-2.1-2.45-1.53-.89.44-.26,1.69-.12,2.57.31,1.94,1.25,3.77,1.01,5.8,1.16,1.6.94,3.66,1.8,5.36,1.76,3.14,3.52,6.29,5.28,9.43,2.49,2.41,5.34,4.72,6.54,7.97,1.9,5.16,5.84,8.31,9.79,11.63,2.57,2.16,4.95,4.54,7.49,6.74,1.16,1,.55,2.21.4,3.21-.11.72-1.03.18-1.55-.16-5.62-.41-11.23-.84-16.85-1.19-.69-.04-1.79-.6-2.11.64-.23.89.58,1.3,1.13,1.73.89.71,1.88,1.31,2.82,1.96,3.96,2.75,8.29,4.95,11.89,8.21-38.41,0-54.6-1.05-93.01-.96-2.26,0,3.93-9.33,3.93-9.33Z"/>
      <path class="cls-1" d="m178.85,489.53c6-1.06,5.61-1.82,6.9-3.19-.65-1.55-2.28-2.1-3.35-3.25-2.39-2.58-2.47-2.88.66-4.49,3.67-1.89,6.24-4.55,7.18-8.71.36-1.57,1.2-3.03,1.82-4.54-.38-.55.48-1.47-.29-1.73-.86-.28-1.15.65-1.54,1.25-.15.23-.44.36-.67.54-4.92,6.57-11.09,10.87-19.62,10.8.97-.65,2.12-.95,3.11-1.54.55-.33,1.89,0,1.58-1.15-.19-.71-1.23-.63-1.96-.77-1.62-.29-3.22-.67-4.62-1.66-1.65-1.16-1.78-2.03-.21-3.35,1.31-1.1,2.7-2.14,4.45-2.49,7.48-4.65,11.94-12.19,17.98-18.25-1.65-.25-2.96.21-4.02,1-4.34,3.24-9.01,2.72-13.78,1.37-.4.03-.84-.07-.92-.46-.13-.63.44-.44.73-.41,1.26.11,2.34-.33,3.36-.98.73-.51,1.41-1.13,2.21-1.5,2.51-1.19,4.8-2.63,6.49-4.91,2.7-3.65,5.45-7.27,8.18-10.9.93-1.75.35-2.49-1.55-2.98-3.66-.95-6.42-3.11-7.78-6.8-1.18-3.21.18-5.35,3.51-5.27,2.33.06,4.46-.41,6.38-1.74,3.8-2.18,4.45-6.68,7.16-9.73,1.78-2,1.13-2.96-1.43-3.91-.63-.23-1.34-.31-1.89-.65-2.62-1.63-5.14-3.82-3.43-6.31,1.21-1.77,2.54-3.36,4.91-3.71,2.04-.3,3.42-1.46,3.8-3.65.21-1.18.44-2.46,1.07-3.44,2.02-3.12,2.72-6.54,2.84-10.15.07-2.28.12-4.55.23-6.83.13-2.65.3-5.3.51-7.95.06-.76.33-1.54,1.29-1.63.81-.07,1.03.61,1.16,1.18.68,2.97,2.34,5.54,3.38,8.35.85,1.33.35,2.81.38,4.21.07,3.63-.33,7.29,1.04,10.79h0c.76.64.41,1.56.47,2.32.14,1.52.32,3.02,1.3,4.21,1.8,2.2,2.63,4.66,2.35,7.5,1,2.47,3.4,3.27,5.43,4.49,2.07,1.24,2.26,2.11.96,4.39-.24.79-.78,1.34-1.31,1.97-.78.92-1.82,2.07-.53,3.42.42.02.77.2.83.63.49,3.17,2.26,5.14,5.36,6.03,1.37.39,2.64,1.11,3.97,1.64,2.86,1.12,5.43,2.66,7.38,5.08,1.21,1.5.97,2.6-.74,3.5-.34.16-.66.38-1.01.47-2.06.53-3.29,1.37-1.48,3.53.21.25.39.72,0,1.01-.41.31-.83.07-1.27-.09-2.94-1.05-5.75-2.45-9.06-2.19-1.83.14-2.32.61-1.6,2.26.12-.06.21-.03.28.09,1.19,1.63,2.52,3.13,3.86,4.65,2.39,2.69,5.75,4.24,8.01,7.06,1.52,1.89,3.52,2.79,5.99,2.72,1.2-.03,2.32.34,3.47.84,2.31,1,4.03,2.66,5.79,4.33,2.22,2.11,4.44,4.16,7.83,4.09,1.29-.03,2.16,1.02,3.25,1.52.31.14.73.51.44.89-.34.43-.8.22-1.16-.13-1.44.03-2.89.05-4.33.09-1.11.03-1.87.51-2.04,1.69.71.93,1.42,1.85,2.4,3.15-1.22-.28-2-.36-2.44-1.18-1.25.08-2.3-.59-3.41-.98-2.86-1-5.52-2.65-8.69-2.67-2.66-.02-2.66-.03-1.98,2.45.89.59.62,1.77,1.29,2.48,1.25,1.32,2.34,2.73,2.75,4.55,1.91,2.99,4.63,5.15,7.46,7.19,1.14.82,2.13,1.73,2.44,3.35-1.73-.48-3.2-1.04-4.72-1.3-6.89-1.18-12.47-4.66-17.22-9.64-3.73-3.19-6.81-6.99-10.07-10.63-.49-.54-.93-1.51-1.76-1.1-.64.32-.19,1.21-.09,1.84.22,1.39.9,2.7.72,4.16.83,1.15.68,2.63,1.29,3.85,1.26,2.26,2.53,4.51,3.79,6.77,1.79,1.73,3.83,3.39,4.69,5.72,1.36,3.7,4.19,5.97,7.02,8.34,1.85,1.55,3.56,3.26,5.38,4.84.83.72.4,1.59.29,2.3-.08.52-.74.13-1.11-.11-4.03-.29-8.06-.61-12.1-.85-.49-.03-1.28-.43-1.51.46-.16.64.42.93.81,1.24.64.51,1.35.94,2.02,1.41,2.84,1.98,5.95,3.56,8.54,5.9-27.57,0-6.21-.07-33.78,0-1.62,0-29.72-10.03-29.72-10.03Z"/>
      <path class="cls-1" d="m224.52,473.22c7.29-1.29,6.82-2.22,8.38-3.88-.79-1.89-2.78-2.55-4.07-3.95-2.91-3.13-3-3.5.8-5.46,4.47-2.3,7.59-5.53,8.73-10.58.43-1.91,1.46-3.68,2.21-5.52-.47-.67.58-1.79-.36-2.1-1.04-.34-1.4.79-1.87,1.52-.18.28-.54.44-.82.66-5.98,7.99-13.48,13.21-23.85,13.13,1.18-.79,2.58-1.16,3.78-1.87.67-.4,2.29,0,1.91-1.4-.23-.86-1.49-.77-2.38-.93-1.97-.36-3.91-.82-5.61-2.01-2-1.41-2.16-2.47-.25-4.07,1.59-1.33,3.28-2.6,5.4-3.02,9.09-5.66,14.51-14.82,21.86-22.18-2-.31-3.6.25-4.89,1.22-5.28,3.94-10.95,3.3-16.75,1.67-.49.03-1.02-.09-1.12-.56-.15-.76.53-.53.89-.5,1.53.14,2.84-.4,4.09-1.19.89-.62,1.72-1.37,2.69-1.83,3.05-1.45,5.83-3.19,7.88-5.97,3.28-4.44,6.62-8.84,9.94-13.25,1.13-2.13.42-3.03-1.89-3.63-4.45-1.16-7.81-3.78-9.46-8.26-1.44-3.9.22-6.51,4.27-6.4,2.83.07,5.42-.5,7.76-2.12,4.62-2.65,5.41-8.13,8.7-11.83,2.16-2.43,1.37-3.6-1.74-4.75-.76-.28-1.63-.38-2.3-.79-3.19-1.99-6.25-4.64-4.17-7.67,1.48-2.15,3.08-4.08,5.97-4.51,2.48-.37,4.15-1.77,4.62-4.44.25-1.43.54-3,1.3-4.18,2.45-3.79,3.31-7.95,3.45-12.34.09-2.77.14-5.54.28-8.3.16-3.22.36-6.45.62-9.66.08-.93.4-1.87,1.57-1.98.99-.09,1.25.75,1.41,1.43.83,3.61,2.85,6.73,4.11,10.16,1.03,1.62.43,3.41.46,5.11.08,4.41-.4,8.86,1.27,13.12h0c.92.78.49,1.89.58,2.82.17,1.85.39,3.67,1.58,5.12,2.19,2.68,3.2,5.67,2.86,9.11,1.22,3,4.13,3.97,6.6,5.46,2.52,1.51,2.75,2.57,1.17,5.34-.29.96-.94,1.63-1.59,2.39-.95,1.12-2.21,2.51-.65,4.16.51.03.93.24,1.01.76.59,3.85,2.74,6.24,6.51,7.33,1.66.48,3.21,1.35,4.83,1.99,3.48,1.37,6.6,3.24,8.98,6.18,1.47,1.82,1.18,3.16-.9,4.26-.41.19-.8.46-1.23.57-2.51.64-4,1.66-1.8,4.29.26.31.47.87,0,1.23-.5.38-1.01.08-1.54-.1-3.57-1.27-6.98-2.97-11.02-2.66-2.22.17-2.82.74-1.94,2.74.15-.07.26-.04.34.11,1.45,1.98,3.07,3.81,4.7,5.65,2.9,3.27,6.99,5.16,9.74,8.59,1.84,2.3,4.28,3.39,7.28,3.31,1.46-.04,2.82.41,4.22,1.02,2.81,1.21,4.9,3.23,7.03,5.26,2.7,2.57,5.4,5.06,9.51,4.97,1.56-.03,2.63,1.24,3.95,1.85.38.17.89.63.53,1.08-.41.53-.97.26-1.4-.16-1.75.04-3.51.06-5.26.11-1.35.04-2.27.62-2.48,2.06.86,1.13,1.72,2.25,2.92,3.82-1.48-.34-2.43-.43-2.97-1.44-1.52.1-2.79-.71-4.15-1.19-3.48-1.22-6.71-3.22-10.56-3.25-3.23-.02-3.23-.04-2.41,2.98,1.08.71.76,2.16,1.57,3.01,1.52,1.6,2.85,3.31,3.35,5.53,2.32,3.64,5.63,6.26,9.07,8.74,1.38,1,2.59,2.11,2.96,4.08-2.1-.59-3.89-1.26-5.74-1.58-8.38-1.44-15.16-5.67-20.93-11.72-4.54-3.87-8.28-8.5-12.24-12.92-.59-.66-1.13-1.83-2.14-1.33-.78.38-.23,1.47-.11,2.24.27,1.69,1.09,3.29.88,5.06,1.01,1.4.82,3.19,1.57,4.68,1.54,2.74,3.07,5.49,4.61,8.23,2.17,2.11,4.66,4.12,5.7,6.95,1.66,4.5,5.1,7.25,8.54,10.14,2.24,1.88,4.32,3.96,6.54,5.88,1.01.87.48,1.93.35,2.8-.09.63-.9.15-1.35-.14-4.9-.36-9.8-.74-14.7-1.03-.6-.04-1.56-.53-1.84.56-.2.78.51,1.13.98,1.51.78.62,1.64,1.14,2.46,1.71,3.45,2.4,7.24,4.32,10.38,7.17-33.51,0-7.55-.08-41.06,0-1.97,0-36.13-12.2-36.13-12.2Z"/>
      <path class="cls-2" d="m448.55,429.4c16.23-2.86,16.35-12.1,19.84-15.8-1.76-4.2-6.18-5.69-9.06-8.79-6.47-6.97-6.67-7.78,1.78-12.14,9.94-5.13,16.89-12.31,19.44-23.56.96-4.25,3.24-8.2,4.92-12.28-1.04-1.48,1.29-3.99-.79-4.67-2.32-.76-3.11,1.75-4.17,3.39-.4.62-1.2.98-1.82,1.46-13.32,17.78-29.99,29.4-53.09,29.22,2.62-1.76,5.75-2.58,8.42-4.17,1.5-.89,5.11-.02,4.26-3.11-.52-1.91-3.32-1.72-5.3-2.08-4.39-.79-8.71-1.82-12.49-4.48-4.45-3.14-4.81-5.5-.57-9.06,3.54-2.97,7.3-5.78,12.03-6.73,20.23-12.59,32.3-32.99,48.64-49.37-4.45-.68-8.01.57-10.88,2.71-11.76,8.77-24.37,7.35-37.28,3.72-1.09.07-2.27-.2-2.48-1.26-.34-1.7,1.18-1.19,1.98-1.11,3.4.31,6.32-.9,9.1-2.64,1.98-1.37,3.83-3.05,5.98-4.07,6.8-3.22,12.98-7.1,17.55-13.28,7.3-9.88,14.74-19.67,22.12-29.49,2.52-4.74.94-6.74-4.2-8.07-9.89-2.57-17.37-8.41-21.05-18.39-3.2-8.68.5-14.48,9.5-14.25,6.3.16,12.07-1.11,17.27-4.71,10.28-5.9,12.03-18.09,19.37-26.33,4.81-5.41,3.05-8-3.88-10.58-1.7-.63-3.63-.84-5.13-1.77-7.1-4.42-13.91-10.33-9.29-17.07,3.28-4.79,6.86-9.09,13.28-10.05,5.53-.82,9.24-3.95,10.29-9.88.56-3.19,1.19-6.67,2.9-9.3,5.46-8.43,7.37-17.69,7.69-27.47.2-6.16.32-12.32.63-18.48.36-7.18.81-14.35,1.39-21.51.17-2.06.9-4.17,3.5-4.41,2.19-.2,2.78,1.66,3.13,3.19,1.84,8.03,6.34,14.98,9.14,22.6,2.3,3.61.96,7.6,1.03,11.38.18,9.82-.89,19.73,2.82,29.2h0c2.05,1.74,1.1,4.21,1.28,6.28.37,4.11.87,8.16,3.53,11.4,4.88,5.96,7.12,12.62,6.37,20.28,2.72,6.68,9.19,8.84,14.7,12.15,5.6,3.37,6.11,5.71,2.61,11.88-.65,2.14-2.1,3.63-3.53,5.32-2.12,2.5-4.91,5.59-1.44,9.25,1.13.06,2.07.53,2.25,1.69,1.32,8.57,6.1,13.9,14.5,16.32,3.7,1.07,7.13,3.02,10.74,4.43,7.74,3.04,14.68,7.21,19.98,13.76,3.27,4.05,2.63,7.04-2,9.47-.91.43-1.78,1.03-2.74,1.27-5.59,1.43-8.9,3.7-4.01,9.55.57.69,1.05,1.94-.01,2.73-1.12.84-2.25.19-3.43-.23-7.95-2.83-15.54-6.62-24.53-5.91-4.95.39-6.29,1.64-4.32,6.11.33-.16.58-.08.75.25,3.23,4.4,6.83,8.48,10.45,12.57,6.46,7.29,15.55,11.48,21.68,19.11,4.11,5.11,9.53,7.54,16.21,7.37,3.25-.08,6.27.91,9.4,2.26,6.26,2.7,10.91,7.2,15.65,11.7,6.01,5.71,12.03,11.26,21.18,11.07,3.48-.07,5.85,2.76,8.79,4.12.84.39,1.97,1.39,1.18,2.4-.91,1.17-2.16.59-3.13-.35-3.9.08-7.81.14-11.71.25-3,.09-5.06,1.39-5.52,4.57,1.92,2.51,3.84,5.02,6.51,8.51-3.3-.76-5.41-.96-6.61-3.2-3.39.22-6.22-1.59-9.23-2.65-7.75-2.71-14.94-7.16-23.51-7.23-7.2-.05-7.2-.08-5.37,6.63,2.4,1.59,1.69,4.8,3.5,6.7,3.38,3.56,6.34,7.38,7.45,12.31,5.17,8.1,12.53,13.93,20.18,19.45,3.08,2.22,5.77,4.69,6.6,9.07-4.67-1.31-8.65-2.81-12.76-3.51-18.65-3.2-33.74-12.61-46.58-26.08-10.1-8.62-18.42-18.92-27.24-28.75-1.32-1.47-2.52-4.08-4.76-2.97-1.74.86-.51,3.28-.24,4.99.6,3.76,2.44,7.31,1.96,11.27,2.25,3.11,1.83,7.11,3.49,10.41,3.42,6.11,6.84,12.21,10.26,18.32,4.83,4.69,10.37,9.17,12.7,15.48,3.69,10.02,11.34,16.15,19.01,22.58,5,4.19,9.62,8.82,14.56,13.09,2.25,1.95,1.07,4.29.78,6.23-.21,1.4-1.99.34-3-.3-10.91-.79-21.81-1.64-32.73-2.3-1.34-.08-3.47-1.17-4.09,1.25-.44,1.73,1.13,2.52,2.19,3.36,1.74,1.38,3.65,2.54,5.47,3.81,7.68,5.35,16.1,9.62,23.1,15.95-74.59,0-106.04-2.05-180.63-1.87-4.38.01,7.64-18.12,7.64-18.12Z"/>
      <path class="cls-2" d="m567.47,369.89c16.23-2.86,16.35-12.1,19.84-15.8-1.76-4.2-6.18-5.69-9.06-8.79-6.47-6.97-6.67-7.78,1.78-12.14,9.94-5.13,16.89-12.31,19.44-23.56.96-4.25,3.24-8.2,4.92-12.28-1.04-1.48,1.29-3.99-.79-4.67-2.32-.76-3.11,1.75-4.17,3.39-.4.62-1.2.98-1.82,1.46-13.32,17.78-29.99,29.4-53.09,29.22,2.62-1.76,5.75-2.58,8.42-4.17,1.5-.89,5.11-.02,4.26-3.11-.52-1.91-3.32-1.72-5.3-2.08-4.39-.79-8.71-1.82-12.49-4.48-4.45-3.14-4.81-5.5-.57-9.06,3.54-2.97,7.3-5.78,12.03-6.73,20.23-12.59,32.3-32.99,48.64-49.37-4.45-.68-8.01.57-10.88,2.71-11.76,8.77-24.37,7.35-37.28,3.72-1.09.07-2.27-.2-2.48-1.26-.34-1.7,1.18-1.19,1.98-1.11,3.4.31,6.32-.9,9.1-2.64,1.98-1.37,3.83-3.05,5.98-4.07,6.8-3.22,12.98-7.1,17.55-13.28,7.3-9.88,14.74-19.67,22.12-29.49,2.52-4.74.94-6.74-4.2-8.07-9.89-2.57-17.37-8.41-21.05-18.39-3.2-8.68.5-14.48,9.5-14.25,6.3.16,12.07-1.11,17.27-4.71,10.28-5.9,12.03-18.09,19.37-26.33,4.81-5.41,3.05-8-3.88-10.58-1.7-.63-3.63-.84-5.13-1.77-7.1-4.42-13.91-10.33-9.29-17.07,3.28-4.79,6.86-9.09,13.28-10.05,5.53-.82,9.24-3.95,10.29-9.88.56-3.19,1.19-6.67,2.9-9.3,5.46-8.43,7.37-17.69,7.69-27.47.2-6.16.32-12.32.63-18.48.36-7.18.81-14.35,1.39-21.51.17-2.06.9-4.17,3.5-4.41,2.19-.2,2.78,1.66,3.13,3.19,1.84,8.03,6.34,14.98,9.14,22.6,2.3,3.61.96,7.6,1.03,11.38.18,9.82-.89,19.73,2.82,29.2h0c2.05,1.74,1.1,4.21,1.28,6.28.37,4.11.87,8.16,3.53,11.4,4.88,5.96,7.12,12.62,6.37,20.28,2.72,6.68,9.19,8.84,14.7,12.15,5.6,3.37,6.11,5.71,2.61,11.88-.65,2.14-2.1,3.63-3.53,5.32-2.12,2.5-4.91,5.59-1.44,9.25,1.13.06,2.07.53,2.25,1.69,1.32,8.57,6.1,13.9,14.5,16.32,3.7,1.07,7.13,3.02,10.74,4.43,7.74,3.04,14.68,7.21,19.98,13.76,3.27,4.05,2.63,7.04-2,9.47-.91.43-1.78,1.03-2.74,1.27-5.59,1.43-8.9,3.7-4.01,9.55.57.69,1.05,1.94-.01,2.73-1.12.84-2.25.19-3.43-.23-7.95-2.83-15.54-6.62-24.53-5.91-4.95.39-6.29,1.64-4.32,6.11.33-.16.58-.08.75.25,3.23,4.4,6.83,8.48,10.45,12.57,6.46,7.29,15.55,11.48,21.68,19.11,4.11,5.11,9.53,7.54,16.21,7.37,3.25-.08,6.27.91,9.4,2.26,6.26,2.7,10.91,7.2,15.65,11.7,6.01,5.71,12.03,11.26,21.18,11.07,3.48-.07,5.85,2.76,8.79,4.12.84.39,1.97,1.39,1.18,2.4-.91,1.17-2.16.59-3.13-.35-3.9.08-7.81.14-11.71.25-3,.09-5.06,1.39-5.52,4.57,1.92,2.51,3.84,5.02,6.51,8.51-3.3-.76-5.41-.96-6.61-3.2-3.39.22-6.22-1.59-9.23-2.65-7.75-2.71-14.94-7.16-23.51-7.23-7.2-.05-7.2-.08-5.37,6.63,2.4,1.59,1.69,4.8,3.5,6.7,3.38,3.56,6.34,7.38,7.45,12.31,5.17,8.1,12.53,13.93,20.18,19.45,3.08,2.22,5.77,4.69,6.6,9.07-4.67-1.31-8.65-2.81-12.76-3.51-18.65-3.2-33.74-12.61-46.58-26.08-10.1-8.62-18.42-18.92-27.24-28.75-1.32-1.47-2.52-4.08-4.76-2.97-1.74.86-.51,3.28-.24,4.99.6,3.76,2.44,7.31,1.96,11.27,2.25,3.11,1.83,7.11,3.49,10.41,3.42,6.11,6.84,12.21,10.26,18.32,4.83,4.69,10.37,9.17,12.7,15.48,3.69,10.02,11.34,16.15,19.01,22.58,5,4.19,9.62,8.82,14.56,13.09,2.25,1.95,1.07,4.29.78,6.23-.21,1.4-1.99.34-3-.3-10.91-.79-21.81-1.64-32.73-2.3-1.34-.08-3.47-1.17-4.09,1.25-.44,1.73,1.13,2.52,2.19,3.36,1.74,1.38,3.65,2.54,5.47,3.81,7.68,5.35,16.1,9.62,23.1,15.95-74.59,0-106.04-2.05-180.63-1.87-4.38.01,7.64-18.12,7.64-18.12Z"/>
      <path class="cls-1" d="m403.04,499.64c11.04-1.95,11.12-8.23,13.49-10.75-1.2-2.86-4.2-3.87-6.16-5.98-4.4-4.74-4.54-5.29,1.21-8.26,6.76-3.49,11.48-8.38,13.22-16.02.66-2.89,2.2-5.58,3.35-8.35-.71-1.01.88-2.71-.54-3.18-1.58-.52-2.12,1.19-2.84,2.3-.27.42-.82.67-1.24.99-9.06,12.1-20.4,20-36.11,19.87,1.78-1.2,3.91-1.76,5.73-2.83,1.02-.61,3.47-.01,2.9-2.12-.35-1.3-2.26-1.17-3.61-1.41-2.99-.54-5.92-1.23-8.5-3.05-3.03-2.13-3.27-3.74-.39-6.16,2.41-2.02,4.96-3.93,8.18-4.58,13.76-8.56,21.97-22.44,33.09-33.58-3.03-.47-5.45.38-7.4,1.84-8,5.97-16.58,5-25.36,2.53-.74.05-1.54-.14-1.69-.85-.23-1.15.8-.81,1.35-.76,2.31.21,4.3-.61,6.19-1.8,1.35-.93,2.6-2.07,4.07-2.77,4.62-2.19,8.83-4.83,11.93-9.04,4.97-6.72,10.03-13.38,15.05-20.06,1.72-3.23.64-4.58-2.86-5.49-6.73-1.75-11.82-5.72-14.32-12.51-2.18-5.91.34-9.85,6.46-9.69,4.29.11,8.21-.75,11.75-3.21,6.99-4.01,8.18-12.3,13.17-17.91,3.27-3.68,2.08-5.44-2.64-7.19-1.15-.43-2.47-.57-3.49-1.2-4.83-3.01-9.46-7.03-6.32-11.61,2.23-3.26,4.67-6.18,9.03-6.83,3.76-.56,6.29-2.69,7-6.72.38-2.17.81-4.54,1.97-6.33,3.71-5.74,5.01-12.03,5.23-18.68.14-4.19.22-8.38.43-12.57.25-4.88.55-9.76.95-14.63.11-1.4.61-2.84,2.38-3,1.49-.14,1.89,1.13,2.13,2.17,1.25,5.47,4.31,10.19,6.22,15.38,1.56,2.45.65,5.17.7,7.74.13,6.68-.61,13.42,1.92,19.86h0c1.39,1.18.75,2.87.87,4.27.25,2.8.6,5.55,2.4,7.75,3.32,4.05,4.84,8.59,4.33,13.8,1.85,4.55,6.25,6.01,10,8.27,3.81,2.29,4.16,3.88,1.77,8.08-.44,1.45-1.43,2.47-2.4,3.62-1.44,1.7-3.34,3.8-.98,6.29.77.04,1.41.36,1.53,1.15.9,5.83,4.15,9.45,9.86,11.1,2.52.73,4.85,2.05,7.31,3.01,5.26,2.07,9.99,4.9,13.59,9.36,2.23,2.75,1.79,4.79-1.36,6.44-.62.3-1.21.7-1.87.87-3.8.97-6.05,2.51-2.73,6.49.39.47.72,1.32,0,1.86-.76.57-1.53.13-2.33-.16-5.41-1.93-10.57-4.5-16.68-4.02-3.37.26-4.28,1.12-2.94,4.15.23-.11.4-.05.51.17,2.2,2.99,4.64,5.77,7.11,8.55,4.39,4.96,10.58,7.81,14.74,13,2.79,3.48,6.48,5.13,11.03,5.01,2.21-.06,4.26.62,6.39,1.54,4.26,1.84,7.42,4.9,10.65,7.96,4.09,3.89,8.18,7.66,14.4,7.53,2.37-.05,3.98,1.87,5.98,2.8.57.26,1.34.95.81,1.63-.62.8-1.47.4-2.13-.24-2.66.06-5.31.09-7.97.17-2.04.06-3.44.95-3.75,3.11,1.3,1.71,2.61,3.41,4.43,5.79-2.24-.52-3.68-.65-4.49-2.18-2.31.15-4.23-1.08-6.28-1.8-5.27-1.84-10.16-4.87-15.99-4.92-4.9-.04-4.9-.06-3.65,4.51,1.64,1.08,1.15,3.26,2.38,4.56,2.3,2.42,4.31,5.02,5.07,8.37,3.52,5.51,8.52,9.47,13.73,13.23,2.1,1.51,3.93,3.19,4.49,6.17-3.18-.89-5.88-1.91-8.68-2.39-12.69-2.17-22.95-8.58-31.69-17.74-6.87-5.86-12.53-12.87-18.53-19.55-.9-1-1.71-2.77-3.24-2.02-1.18.58-.35,2.23-.16,3.39.41,2.56,1.66,4.97,1.33,7.66,1.53,2.11,1.25,4.83,2.37,7.08,2.33,4.15,4.65,8.31,6.98,12.46,3.29,3.19,7.05,6.23,8.64,10.53,2.51,6.81,7.71,10.98,12.93,15.36,3.4,2.85,6.55,6,9.9,8.9,1.53,1.32.73,2.92.53,4.23-.14.95-1.36.23-2.04-.21-7.42-.54-14.84-1.12-22.26-1.57-.91-.06-2.36-.8-2.78.85-.3,1.18.77,1.71,1.49,2.29,1.18.94,2.48,1.73,3.72,2.59,5.22,3.64,10.95,6.54,15.71,10.85-50.74,0-72.13-1.39-122.86-1.27-2.98,0,5.2-12.32,5.2-12.32Z"/>
      <path class="cls-1" d="m559.41,483.3c14.02-2.47,14.12-10.45,17.13-13.64-1.52-3.63-5.33-4.91-7.83-7.59-5.58-6.02-5.76-6.72,1.54-10.49,8.58-4.43,14.58-10.63,16.78-20.34.83-3.67,2.8-7.08,4.25-10.61-.9-1.28,1.12-3.44-.68-4.03-2.01-.66-2.69,1.52-3.6,2.93-.35.53-1.04.85-1.57,1.26-11.5,15.36-25.9,25.39-45.84,25.23,2.26-1.52,4.96-2.23,7.27-3.6,1.29-.77,4.41-.01,3.68-2.69-.45-1.65-2.86-1.48-4.58-1.79-3.79-.69-7.52-1.57-10.79-3.87-3.84-2.71-4.15-4.75-.49-7.82,3.06-2.57,6.3-4.99,10.39-5.81,17.47-10.87,27.89-28.49,42.01-42.64-3.84-.59-6.91.49-9.4,2.34-10.15,7.58-21.05,6.35-32.19,3.21-.94.06-1.96-.17-2.14-1.08-.29-1.47,1.02-1.03,1.71-.96,2.94.27,5.46-.78,7.86-2.28,1.71-1.19,3.3-2.63,5.16-3.51,5.87-2.78,11.21-6.13,15.15-11.47,6.3-8.54,12.73-16.98,19.1-25.47,2.18-4.1.81-5.82-3.63-6.97-8.54-2.22-15-7.26-18.18-15.88-2.76-7.5.43-12.5,8.21-12.3,5.44.14,10.42-.95,14.92-4.07,8.88-5.09,10.39-15.62,16.72-22.74,4.15-4.67,2.64-6.91-3.35-9.13-1.47-.54-3.14-.72-4.43-1.52-6.13-3.82-12.01-8.92-8.02-14.74,2.84-4.14,5.93-7.85,11.47-8.68,4.78-.71,7.98-3.41,8.89-8.53.49-2.75,1.03-5.76,2.5-8.03,4.71-7.28,6.36-15.28,6.64-23.72.17-5.32.28-10.64.55-15.96.31-6.2.7-12.39,1.2-18.57.14-1.78.78-3.6,3.02-3.81,1.89-.18,2.4,1.44,2.7,2.75,1.59,6.94,5.47,12.93,7.9,19.52,1.98,3.11.83,6.56.89,9.83.16,8.48-.77,17.04,2.44,25.22h0c1.77,1.5.95,3.64,1.11,5.42.32,3.55.76,7.05,3.04,9.84,4.22,5.15,6.15,10.9,5.5,17.52,2.35,5.77,7.93,7.63,12.69,10.5,4.84,2.91,5.28,4.93,2.25,10.26-.56,1.85-1.81,3.14-3.05,4.6-1.83,2.16-4.24,4.83-1.25,7.99.98.05,1.79.46,1.94,1.46,1.14,7.4,5.27,12,12.52,14.09,3.19.92,6.16,2.6,9.28,3.83,6.68,2.63,12.68,6.22,17.25,11.88,2.83,3.49,2.27,6.08-1.72,8.18-.79.37-1.54.89-2.37,1.1-4.82,1.23-7.69,3.19-3.47,8.24.5.59.91,1.67,0,2.36-.97.72-1.94.16-2.96-.2-6.86-2.45-13.42-5.71-21.18-5.11-4.27.33-5.43,1.42-3.73,5.27.29-.14.5-.07.65.22,2.79,3.8,5.9,7.32,9.02,10.85,5.58,6.29,13.43,9.92,18.72,16.5,3.55,4.41,8.23,6.51,14,6.36,2.8-.07,5.41.79,8.12,1.95,5.41,2.33,9.42,6.21,13.52,10.11,5.19,4.93,10.38,9.72,18.29,9.56,3-.06,5.05,2.38,7.59,3.56.72.33,1.7,1.2,1.02,2.07-.79,1.01-1.87.51-2.7-.3-3.37.07-6.74.12-10.11.22-2.59.08-4.37,1.2-4.77,3.95,1.66,2.17,3.31,4.33,5.62,7.35-2.85-.65-4.67-.83-5.71-2.76-2.93.19-5.37-1.37-7.97-2.28-6.69-2.34-12.9-6.19-20.3-6.24-6.21-.05-6.21-.07-4.64,5.73,2.08,1.37,1.46,4.14,3.02,5.78,2.92,3.08,5.48,6.37,6.43,10.63,4.46,6.99,10.82,12.03,17.43,16.8,2.66,1.92,4.99,4.05,5.7,7.84-4.03-1.13-7.47-2.42-11.02-3.03-16.11-2.76-29.13-10.89-40.23-22.52-8.72-7.44-15.91-16.34-23.52-24.83-1.14-1.27-2.17-3.52-4.11-2.57-1.5.74-.44,2.83-.21,4.31.52,3.25,2.1,6.31,1.69,9.73,1.94,2.68,1.58,6.14,3.01,8.99,2.95,5.27,5.91,10.55,8.86,15.82,4.17,4.05,8.96,7.91,10.96,13.37,3.18,8.65,9.79,13.94,16.41,19.5,4.31,3.62,8.31,7.62,12.57,11.3,1.94,1.68.92,3.71.68,5.38-.18,1.21-1.72.3-2.59-.26-9.42-.68-18.83-1.42-28.26-1.99-1.16-.07-3-1.01-3.53,1.08-.38,1.49.98,2.18,1.89,2.9,1.5,1.19,3.15,2.19,4.73,3.29,6.63,4.62,13.91,8.31,19.95,13.77-64.41,0-91.57-1.77-155.98-1.61-3.78,0,6.6-15.65,6.6-15.65Z"/>
      <path class="cls-2" d="m46.53,474.32c6.24-1.1,6.28-4.65,7.62-6.07-.68-1.61-2.37-2.18-3.48-3.38-2.48-2.68-2.56-2.99.69-4.66,3.82-1.97,6.49-4.73,7.47-9.05.37-1.63,1.24-3.15,1.89-4.72-.4-.57.5-1.53-.3-1.79-.89-.29-1.2.67-1.6,1.3-.15.24-.46.38-.7.56-5.12,6.83-11.52,11.3-20.39,11.22,1.01-.68,2.21-.99,3.23-1.6.58-.34,1.96,0,1.64-1.2-.2-.73-1.27-.66-2.04-.8-1.69-.3-3.35-.7-4.8-1.72-1.71-1.21-1.85-2.11-.22-3.48,1.36-1.14,2.8-2.22,4.62-2.58,7.77-4.84,12.41-12.67,18.69-18.97-1.71-.26-3.08.22-4.18,1.04-4.52,3.37-9.36,2.82-14.32,1.43-.42.03-.87-.08-.95-.48-.13-.65.45-.46.76-.43,1.31.12,2.43-.35,3.5-1.01.76-.53,1.47-1.17,2.3-1.56,2.61-1.24,4.99-2.73,6.74-5.1,2.8-3.8,5.66-7.56,8.5-11.33.97-1.82.36-2.59-1.62-3.1-3.8-.99-6.67-3.23-8.09-7.07-1.23-3.34.19-5.56,3.65-5.47,2.42.06,4.64-.42,6.64-1.81,3.95-2.26,4.62-6.95,7.44-10.12,1.85-2.08,1.17-3.07-1.49-4.06-.65-.24-1.39-.32-1.97-.68-2.73-1.7-5.34-3.97-3.57-6.56,1.26-1.84,2.64-3.49,5.1-3.86,2.12-.32,3.55-1.52,3.95-3.8.22-1.23.46-2.56,1.11-3.57,2.1-3.24,2.83-6.8,2.95-10.55.08-2.37.12-4.73.24-7.1.14-2.76.31-5.51.53-8.26.06-.79.35-1.6,1.34-1.7.84-.08,1.07.64,1.2,1.22.71,3.09,2.43,5.75,3.51,8.68.88,1.39.37,2.92.4,4.37.07,3.77-.34,7.58,1.08,11.22h0c.79.67.42,1.62.49,2.41.14,1.58.34,3.14,1.35,4.38,1.88,2.29,2.74,4.85,2.45,7.79,1.04,2.57,3.53,3.4,5.65,4.67,2.15,1.29,2.35,2.19,1,4.57-.25.82-.81,1.39-1.36,2.04-.81.96-1.89,2.15-.55,3.56.43.02.8.2.86.65.51,3.29,2.34,5.34,5.57,6.27,1.42.41,2.74,1.16,4.13,1.7,2.97,1.17,5.64,2.77,7.68,5.28,1.26,1.55,1.01,2.71-.77,3.64-.35.17-.69.4-1.05.49-2.15.55-3.42,1.42-1.54,3.67.22.26.4.74,0,1.05-.43.32-.86.07-1.32-.09-3.05-1.09-5.97-2.54-9.42-2.27-1.9.15-2.41.63-1.66,2.35.13-.06.22-.03.29.1,1.24,1.69,2.62,3.26,4.01,4.83,2.48,2.8,5.97,4.41,8.33,7.34,1.58,1.96,3.66,2.89,6.23,2.83,1.25-.03,2.41.35,3.61.87,2.41,1.04,4.19,2.76,6.01,4.5,2.31,2.19,4.62,4.33,8.13,4.25,1.34-.03,2.25,1.06,3.38,1.58.32.15.76.53.45.92-.35.45-.83.23-1.2-.14-1.5.03-3,.05-4.5.1-1.15.03-1.94.53-2.12,1.76.74.96,1.47,1.93,2.5,3.27-1.27-.29-2.08-.37-2.54-1.23-1.3.08-2.39-.61-3.55-1.02-2.98-1.04-5.74-2.75-9.03-2.78-2.76-.02-2.76-.03-2.06,2.55.92.61.65,1.84,1.34,2.57,1.3,1.37,2.44,2.83,2.86,4.73,1.99,3.11,4.81,5.35,7.75,7.47,1.18.85,2.22,1.8,2.53,3.49-1.79-.5-3.32-1.08-4.9-1.35-7.17-1.23-12.96-4.85-17.9-10.02-3.88-3.31-7.08-7.27-10.46-11.04-.51-.57-.97-1.57-1.83-1.14-.67.33-.2,1.26-.09,1.92.23,1.45.94,2.81.75,4.33.86,1.19.7,2.73,1.34,4,1.31,2.35,2.63,4.69,3.94,7.04,1.86,1.8,3.98,3.52,4.88,5.95,1.42,3.85,4.36,6.2,7.3,8.67,1.92,1.61,3.7,3.39,5.59,5.03.86.75.41,1.65.3,2.39-.08.54-.77.13-1.15-.12-4.19-.3-8.38-.63-12.57-.88-.51-.03-1.33-.45-1.57.48-.17.67.43.97.84,1.29.67.53,1.4.98,2.1,1.46,2.95,2.05,6.19,3.7,8.87,6.13-28.65,0-40.74-.79-69.39-.72-1.68,0,2.93-6.96,2.93-6.96Z"/>
      <path class="cls-2" d="m8.01,480.15c4.11-.72,4.14-3.06,5.02-4-.45-1.06-1.56-1.44-2.3-2.23-1.64-1.77-1.69-1.97.45-3.08,2.52-1.3,4.28-3.12,4.92-5.97.24-1.08.82-2.08,1.25-3.11-.26-.38.33-1.01-.2-1.18-.59-.19-.79.44-1.06.86-.1.16-.3.25-.46.37-3.37,4.5-7.6,7.45-13.45,7.4.66-.45,1.46-.65,2.13-1.06.38-.23,1.29,0,1.08-.79-.13-.48-.84-.43-1.34-.53-1.11-.2-2.21-.46-3.16-1.13-1.13-.79-1.22-1.39-.14-2.3.9-.75,1.85-1.46,3.05-1.7,5.12-3.19,8.18-8.36,12.32-12.51-1.13-.17-2.03.14-2.76.69-2.98,2.22-6.17,1.86-9.44.94-.28.02-.58-.05-.63-.32-.09-.43.3-.3.5-.28.86.08,1.6-.23,2.31-.67.5-.35.97-.77,1.51-1.03,1.72-.82,3.29-1.8,4.44-3.36,1.85-2.5,3.73-4.98,5.6-7.47.64-1.2.24-1.71-1.06-2.05-2.51-.65-4.4-2.13-5.33-4.66-.81-2.2.13-3.67,2.41-3.61,1.6.04,3.06-.28,4.38-1.19,2.6-1.49,3.05-4.58,4.91-6.67,1.22-1.37.77-2.03-.98-2.68-.43-.16-.92-.21-1.3-.45-1.8-1.12-3.52-2.62-2.35-4.32.83-1.21,1.74-2.3,3.36-2.54,1.4-.21,2.34-1,2.61-2.5.14-.81.3-1.69.73-2.36,1.38-2.14,1.87-4.48,1.95-6.96.05-1.56.08-3.12.16-4.68.09-1.82.21-3.63.35-5.45.04-.52.23-1.06.89-1.12.56-.05.7.42.79.81.47,2.04,1.6,3.79,2.32,5.73.58.91.24,1.92.26,2.88.05,2.49-.23,5,.71,7.4h0c.52.44.28,1.07.33,1.59.09,1.04.22,2.07.89,2.89,1.24,1.51,1.8,3.2,1.61,5.14.69,1.69,2.33,2.24,3.72,3.08,1.42.85,1.55,1.45.66,3.01-.17.54-.53.92-.9,1.35-.54.63-1.24,1.42-.37,2.34.29.02.52.13.57.43.33,2.17,1.55,3.52,3.67,4.13.94.27,1.81.76,2.72,1.12,1.96.77,3.72,1.83,5.06,3.48.83,1.02.67,1.78-.51,2.4-.23.11-.45.26-.7.32-1.41.36-2.25.94-1.02,2.42.15.17.27.49,0,.69-.28.21-.57.05-.87-.06-2.01-.72-3.94-1.68-6.21-1.5-1.25.1-1.59.42-1.09,1.55.08-.04.15-.02.19.06.82,1.11,1.73,2.15,2.65,3.18,1.64,1.85,3.94,2.91,5.49,4.84,1.04,1.29,2.41,1.91,4.11,1.87.82-.02,1.59.23,2.38.57,1.59.68,2.76,1.82,3.96,2.96,1.52,1.45,3.05,2.85,5.36,2.8.88-.02,1.48.7,2.23,1.04.21.1.5.35.3.61-.23.3-.55.15-.79-.09-.99.02-1.98.03-2.97.06-.76.02-1.28.35-1.4,1.16.49.64.97,1.27,1.65,2.16-.83-.19-1.37-.24-1.67-.81-.86.06-1.57-.4-2.34-.67-1.96-.69-3.78-1.81-5.95-1.83-1.82-.01-1.82-.02-1.36,1.68.61.4.43,1.22.89,1.7.86.9,1.61,1.87,1.89,3.12,1.31,2.05,3.17,3.53,5.11,4.93.78.56,1.46,1.19,1.67,2.3-1.18-.33-2.19-.71-3.23-.89-4.72-.81-8.55-3.2-11.8-6.61-2.56-2.18-4.67-4.79-6.9-7.28-.33-.37-.64-1.03-1.21-.75-.44.22-.13.83-.06,1.26.15.95.62,1.85.5,2.85.57.79.46,1.8.88,2.64.87,1.55,1.73,3.09,2.6,4.64,1.22,1.19,2.63,2.32,3.22,3.92.93,2.54,2.87,4.09,4.81,5.72,1.27,1.06,2.44,2.23,3.69,3.32.57.49.27,1.09.2,1.58-.05.35-.5.09-.76-.08-2.76-.2-5.52-.42-8.29-.58-.34-.02-.88-.3-1.04.32-.11.44.29.64.55.85.44.35.92.64,1.39.96,1.95,1.35,4.08,2.44,5.85,4.04-18.89,0-26.86-.52-45.75-.47-1.11,0,1.94-4.59,1.94-4.59Z"/>
      <path class="cls-1" d="m124.75,479.08c5.11-.75,4.77-1.29,5.87-2.25-.55-1.09-1.94-1.48-2.85-2.29-2.03-1.82-2.1-2.03.56-3.16,3.13-1.34,5.31-3.21,6.11-6.14.3-1.11,1.02-2.14,1.55-3.2-.33-.39.41-1.04-.25-1.22-.73-.2-.98.46-1.31.88-.13.16-.38.26-.57.38-4.19,4.63-9.43,7.66-16.7,7.61.82-.46,1.81-.67,2.65-1.09.47-.23,1.61,0,1.34-.81-.16-.5-1.04-.45-1.67-.54-1.38-.21-2.74-.47-3.93-1.17-1.4-.82-1.51-1.43-.18-2.36,1.11-.77,2.29-1.51,3.78-1.75,6.36-3.28,10.16-8.6,15.3-12.87-1.4-.18-2.52.15-3.42.71-3.7,2.29-7.67,1.92-11.73.97-.34.02-.71-.05-.78-.33-.11-.44.37-.31.62-.29,1.07.08,1.99-.23,2.86-.69.62-.36,1.2-.79,1.88-1.06,2.14-.84,4.08-1.85,5.52-3.46,2.3-2.58,4.64-5.13,6.96-7.69.79-1.24.3-1.76-1.32-2.1-3.11-.67-5.46-2.19-6.62-4.79-1.01-2.26.16-3.77,2.99-3.71,1.98.04,3.8-.29,5.43-1.23,3.23-1.54,3.78-4.71,6.09-6.86,1.51-1.41.96-2.09-1.22-2.76-.53-.16-1.14-.22-1.61-.46-2.23-1.15-4.37-2.69-2.92-4.45,1.03-1.25,2.16-2.37,4.18-2.62,1.74-.21,2.91-1.03,3.24-2.57.18-.83.38-1.74.91-2.42,1.72-2.2,2.32-4.61,2.42-7.16.06-1.61.1-3.21.2-4.81.11-1.87.25-3.74.44-5.6.05-.54.28-1.09,1.1-1.15.69-.05.87.43.98.83.58,2.09,1.99,3.9,2.88,5.89.72.94.3,1.98.32,2.97.06,2.56-.28,5.14.89,7.61h0c.64.45.35,1.1.4,1.64.12,1.07.28,2.13,1.11,2.97,1.54,1.55,2.24,3.29,2,5.29.85,1.74,2.89,2.3,4.62,3.17,1.76.88,1.92,1.49.82,3.1-.21.56-.66.95-1.11,1.39-.67.65-1.54,1.46-.45,2.41.36.02.65.14.71.44.41,2.23,1.92,3.62,4.56,4.25,1.16.28,2.24.79,3.38,1.16,2.43.79,4.62,1.88,6.28,3.58,1.03,1.05.83,1.84-.63,2.47-.29.11-.56.27-.86.33-1.76.37-2.8.96-1.26,2.49.18.18.33.5,0,.71-.35.22-.71.05-1.08-.06-2.5-.74-4.89-1.72-7.71-1.54-1.56.1-1.98.43-1.36,1.59.1-.04.18-.02.24.07,1.02,1.15,2.15,2.21,3.29,3.28,2.03,1.9,4.89,2.99,6.82,4.98,1.29,1.33,3,1.96,5.1,1.92,1.02-.02,1.97.24,2.96.59,1.97.7,3.43,1.88,4.92,3.05,1.89,1.49,3.78,2.93,6.66,2.88,1.09-.02,1.84.72,2.77,1.07.26.1.62.36.37.63-.29.31-.68.15-.98-.09-1.23.02-2.46.04-3.68.07-.94.02-1.59.36-1.74,1.19.6.65,1.21,1.31,2.05,2.22-1.04-.2-1.7-.25-2.08-.83-1.07.06-1.96-.41-2.9-.69-2.44-.71-4.7-1.87-7.39-1.88-2.26-.01-2.26-.02-1.69,1.73.76.41.53,1.25,1.1,1.75,1.06.93,1.99,1.92,2.34,3.21,1.63,2.11,3.94,3.63,6.35,5.07.97.58,1.82,1.22,2.07,2.36-1.47-.34-2.72-.73-4.01-.91-5.87-.83-10.61-3.29-14.65-6.8-3.18-2.25-5.79-4.93-8.57-7.49-.42-.38-.79-1.06-1.5-.77-.55.22-.16.86-.08,1.3.19.98.77,1.91.62,2.94.71.81.58,1.85,1.1,2.71,1.08,1.59,2.15,3.18,3.23,4.77,1.52,1.22,3.26,2.39,3.99,4.03,1.16,2.61,3.57,4.21,5.98,5.88,1.57,1.09,3.03,2.3,4.58,3.41.71.51.34,1.12.25,1.62-.07.36-.63.09-.94-.08-3.43-.21-6.86-.43-10.29-.6-.42-.02-1.09-.31-1.29.32-.14.45.36.66.69.88.55.36,1.15.66,1.72.99,2.42,1.39,5.07,2.51,7.27,4.16-23.46,0-5.29-.05-28.75,0-1.38,0-25.3-7.07-25.3-7.07Z"/>
      <path class="cls-1" d="m90.35,468.87c3-.44,2.8-.76,3.45-1.32-.33-.64-1.14-.87-1.67-1.35-1.19-1.07-1.23-1.19.33-1.86,1.84-.78,3.12-1.88,3.59-3.6.18-.65.6-1.25.91-1.88-.19-.23.24-.61-.15-.71-.43-.12-.57.27-.77.52-.07.09-.22.15-.34.22-2.46,2.72-5.54,4.5-9.8,4.47.48-.27,1.06-.39,1.55-.64.28-.14.94,0,.79-.48-.1-.29-.61-.26-.98-.32-.81-.12-1.61-.28-2.31-.69-.82-.48-.89-.84-.1-1.39.65-.45,1.35-.88,2.22-1.03,3.73-1.93,5.96-5.05,8.98-7.55-.82-.1-1.48.09-2.01.41-2.17,1.34-4.5,1.12-6.88.57-.2.01-.42-.03-.46-.19-.06-.26.22-.18.37-.17.63.05,1.17-.14,1.68-.4.37-.21.71-.47,1.1-.62,1.26-.49,2.4-1.09,3.24-2.03,1.35-1.51,2.72-3.01,4.08-4.51.47-.73.17-1.03-.78-1.24-1.83-.39-3.21-1.29-3.89-2.81-.59-1.33.09-2.22,1.76-2.18,1.16.02,2.23-.17,3.19-.72,1.9-.9,2.22-2.77,3.58-4.03.89-.83.56-1.22-.72-1.62-.31-.1-.67-.13-.95-.27-1.31-.68-2.57-1.58-1.72-2.61.61-.73,1.27-1.39,2.45-1.54,1.02-.13,1.71-.6,1.9-1.51.1-.49.22-1.02.54-1.42,1.01-1.29,1.36-2.71,1.42-4.2.04-.94.06-1.89.12-2.83.07-1.1.15-2.2.26-3.29.03-.32.17-.64.65-.68.4-.03.51.25.58.49.34,1.23,1.17,2.29,1.69,3.46.42.55.18,1.16.19,1.74.03,1.5-.16,3.02.52,4.47h0c.38.27.2.64.24.96.07.63.16,1.25.65,1.74.9.91,1.32,1.93,1.18,3.1.5,1.02,1.7,1.35,2.71,1.86,1.03.52,1.13.87.48,1.82-.12.33-.39.56-.65.81-.39.38-.91.86-.27,1.42.21,0,.38.08.42.26.24,1.31,1.13,2.13,2.68,2.5.68.16,1.32.46,1.98.68,1.43.47,2.71,1.1,3.69,2.1.6.62.48,1.08-.37,1.45-.17.07-.33.16-.51.2-1.03.22-1.64.57-.74,1.46.11.11.19.3,0,.42-.21.13-.41.03-.63-.04-1.47-.43-2.87-1.01-4.53-.9-.91.06-1.16.25-.8.93.06-.02.11-.01.14.04.6.67,1.26,1.3,1.93,1.92,1.19,1.12,2.87,1.76,4,2.92.76.78,1.76,1.15,2.99,1.13.6-.01,1.16.14,1.74.35,1.16.41,2.01,1.1,2.89,1.79,1.11.87,2.22,1.72,3.91,1.69.64-.01,1.08.42,1.62.63.15.06.36.21.22.37-.17.18-.4.09-.58-.05-.72.01-1.44.02-2.16.04-.55.01-.93.21-1.02.7.35.38.71.77,1.2,1.3-.61-.12-1-.15-1.22-.49-.63.03-1.15-.24-1.7-.4-1.43-.41-2.76-1.1-4.34-1.11-1.33,0-1.33-.01-.99,1.01.44.24.31.73.65,1.02.62.54,1.17,1.13,1.38,1.88.95,1.24,2.31,2.13,3.73,2.98.57.34,1.07.72,1.22,1.39-.86-.2-1.6-.43-2.36-.54-3.44-.49-6.23-1.93-8.6-3.99-1.87-1.32-3.4-2.89-5.03-4.4-.24-.23-.47-.62-.88-.45-.32.13-.09.5-.04.76.11.58.45,1.12.36,1.72.41.48.34,1.09.64,1.59.63.93,1.26,1.87,1.9,2.8.89.72,1.92,1.4,2.34,2.37.68,1.53,2.09,2.47,3.51,3.45.92.64,1.78,1.35,2.69,2,.42.3.2.66.14.95-.04.21-.37.05-.55-.05-2.01-.12-4.03-.25-6.04-.35-.25-.01-.64-.18-.76.19-.08.26.21.39.4.51.32.21.67.39,1.01.58,1.42.82,2.97,1.47,4.27,2.44-13.77,0-3.1-.03-16.88,0-.81,0-14.85-4.15-14.85-4.15Z"/>
      <path class="cls-1" d="m67.99,465.91c1.82-.27,1.7-.46,2.09-.8-.2-.39-.69-.53-1.02-.82-.72-.65-.75-.72.2-1.13,1.11-.48,1.89-1.14,2.18-2.19.11-.39.36-.76.55-1.14-.12-.14.14-.37-.09-.43-.26-.07-.35.16-.47.31-.04.06-.13.09-.2.14-1.49,1.65-3.36,2.73-5.95,2.71.29-.16.64-.24.94-.39.17-.08.57,0,.48-.29-.06-.18-.37-.16-.59-.19-.49-.07-.98-.17-1.4-.42-.5-.29-.54-.51-.06-.84.4-.28.82-.54,1.35-.62,2.27-1.17,3.62-3.06,5.45-4.58-.5-.06-.9.05-1.22.25-1.32.81-2.73.68-4.18.35-.12,0-.25-.02-.28-.12-.04-.16.13-.11.22-.1.38.03.71-.08,1.02-.25.22-.13.43-.28.67-.38.76-.3,1.45-.66,1.97-1.23.82-.92,1.65-1.83,2.48-2.74.28-.44.11-.63-.47-.75-1.11-.24-1.95-.78-2.36-1.71-.36-.81.06-1.34,1.07-1.32.71.01,1.35-.1,1.94-.44,1.15-.55,1.35-1.68,2.17-2.45.54-.5.34-.74-.43-.98-.19-.06-.41-.08-.57-.16-.8-.41-1.56-.96-1.04-1.59.37-.45.77-.84,1.49-.93.62-.08,1.04-.37,1.15-.92.06-.3.13-.62.32-.86.61-.78.83-1.64.86-2.55.02-.57.04-1.14.07-1.72.04-.67.09-1.33.16-2,.02-.19.1-.39.39-.41.25-.02.31.15.35.3.21.75.71,1.39,1.02,2.1.26.33.11.71.12,1.06.02.91-.1,1.83.32,2.71h0c.23.16.12.39.14.58.04.38.1.76.4,1.06.55.55.8,1.17.71,1.88.3.62,1.03.82,1.65,1.13.63.31.69.53.29,1.1-.07.2-.24.34-.4.49-.24.23-.55.52-.16.86.13,0,.23.05.25.16.15.8.68,1.29,1.62,1.52.41.1.8.28,1.2.41.87.28,1.65.67,2.24,1.28.37.38.29.65-.22.88-.1.04-.2.1-.31.12-.63.13-1,.34-.45.89.06.06.12.18,0,.25-.13.08-.25.02-.38-.02-.89-.26-1.74-.61-2.75-.55-.55.04-.7.15-.48.57.04-.02.07,0,.08.02.36.41.77.79,1.17,1.17.72.68,1.74,1.07,2.43,1.77.46.47,1.07.7,1.82.68.36,0,.7.08,1.05.21.7.25,1.22.67,1.75,1.09.67.53,1.35,1.05,2.37,1.03.39,0,.66.26.99.38.09.04.22.13.13.22-.1.11-.24.05-.35-.03-.44,0-.88.01-1.31.02-.34,0-.57.13-.62.42.21.23.43.47.73.79-.37-.07-.61-.09-.74-.3-.38.02-.7-.15-1.03-.25-.87-.25-1.67-.67-2.63-.67-.81,0-.81,0-.6.62.27.15.19.45.39.62.38.33.71.68.84,1.14.58.75,1.4,1.29,2.26,1.81.35.21.65.44.74.84-.52-.12-.97-.26-1.43-.33-2.09-.3-3.78-1.17-5.22-2.42-1.13-.8-2.06-1.76-3.05-2.67-.15-.14-.28-.38-.53-.28-.19.08-.06.3-.03.46.07.35.27.68.22,1.05.25.29.21.66.39.97l1.15,1.7c.54.44,1.16.85,1.42,1.44.41.93,1.27,1.5,2.13,2.1.56.39,1.08.82,1.63,1.22.25.18.12.4.09.58-.02.13-.22.03-.34-.03-1.22-.07-2.44-.15-3.67-.21-.15,0-.39-.11-.46.12-.05.16.13.23.25.31.19.13.41.24.61.35.86.5,1.8.89,2.59,1.48-8.36,0-1.88-.02-10.24,0-.49,0-9.01-2.52-9.01-2.52Z"/>
    </g>
  </g>
</svg>