<svg xmlns="http://www.w3.org/2000/svg" viewBox="0 0 143.08 64.66"><defs><style>.a{fill:#cf1e37;}.b{fill:#fff;}</style></defs><title>Chums logo</title><path class="a" d="M512,544.33c-28.13,0-67.31-4.16-67.31-4.16a3.1,3.1,0,0,1-3-3l-1.2-50.53a3,3,0,0,1,3-3s16.69-1.64,31-2.54,21.79-1.38,37.53-1.38,23.25.47,37.53,1.38,31,2.54,31,2.54a3,3,0,0,1,3,3l-1.2,50.53a3.11,3.11,0,0,1-3,3s-39.19,4.15-67.31,4.15" transform="translate(-440.46 -479.67)"/><path class="b" d="M572.4,533.86a2.68,2.68,0,1,1,2.69,2.66,2.65,2.65,0,0,1-2.69-2.66m2.69,2.21a2.21,2.21,0,1,0-2.16-2.21,2.14,2.14,0,0,0,2.16,2.21m-.56-.68h-.46v-3.05h1.16c.72,0,1.08.27,1.08.87a.79.79,0,0,1-.79.84l.87,1.35h-.52l-.8-1.32h-.54Zm.55-1.72c.4,0,.74,0,.74-.5s-.34-.45-.66-.45h-.63v.94Z" transform="translate(-440.46 -479.67)"/><path class="b" d="M469.88,506.69h-7v-4.77c0-2.11-.25-3.41-2.47-3.41-2,0-2.22,1.63-2.22,3.47v19c0,2.44.25,3.8,2.39,3.8,2.31,0,2.31-1.9,2.31-3.8v-4.77H470v3.41c0,7.27-1.3,11.66-9.68,11.66-7.88,0-9.34-3.85-9.34-9.87V502.57c0-2.71.2-5,1.46-7,2.22-3.52,6-3.74,8-3.74,2.55,0,5.15.49,7.08,2.55,2.13,2.22,2.26,5.37,2.26,7.75Z" transform="translate(-440.46 -479.67)"/><polygon class="b" points="33.56 12.87 40.73 12.87 40.73 28.33 45.72 28.33 45.72 12.87 52.89 12.87 52.89 51.14 45.72 51.14 45.72 35.1 40.73 35.1 40.73 51.14 33.56 51.14 33.56 12.87"/><path class="b" d="M505.42,492.55v28.84c0,1.19,0,3.42,2.22,3.42s2.1-2,2.1-3.25v-29h7.17v27.54c0,4.72-.08,11.33-9,11.33-9.68,0-9.68-6.61-9.68-11.06V492.55Z" transform="translate(-440.46 -479.67)"/><polygon class="b" points="109.46 12.87 109.46 51.14 103.09 51.14 103.13 27.42 98.07 51.14 92.81 51.14 87.67 27.42 87.67 51.14 81.38 51.14 81.38 12.87 91.34 12.87 95.46 35.44 99.5 12.87 109.46 12.87"/><path class="b" d="M558.89,512.28c-3-2.82-4.11-3.9-4.11-9.37,0-7.86,1.88-11.06,9.26-11.06,7.76,0,8.47,4,8.3,12.41h-6.79V501.6c0-1.95-.13-3.2-2-3.2s-1.8,1.79-1.8,3.36c0,2.06.08,2.82,1.34,3.9l6.11,5.47c2.72,2.44,3.81,3.58,3.81,9.43,0,4.18-.63,6.18-1.89,7.86s-3.1,2.93-7.42,2.93c-3.31,0-5.74-.76-7.29-2.38-2.13-2.33-2.09-5.8-2-10.41h7.09v3c0,.92,0,3.09,2.09,3.09s2.26-1.79,2.26-2.71c0-2.93,0-3.2-2.68-5.64Z" transform="translate(-440.46 -479.67)"/></svg>