<?xml version="1.0" encoding="UTF-8"?>
<svg id="_圖層_2" data-name="圖層 2" xmlns="http://www.w3.org/2000/svg" viewBox="0 0 34.97 52.69">
  <g id="_圖層_1-2" data-name="圖層 1">
    <g id="_圖層_2-2" data-name="圖層 2">
      <path d="m34.67,48.21l-7.94-16.53c-.1-.2-.21-.39-.35-.56,4.57-3.04,7.58-8.24,7.58-14.14C33.96,7.6,26.36,0,16.98,0S0,7.6,0,16.98s7.6,16.98,16.98,16.98c1.17,0,2.3-.12,3.4-.34.05.23.12.46.23.68l7.94,16.53c.77,1.6,2.76,2.3,4.45,1.58s2.44-2.61,1.67-4.2Zm-17.49-18.58c-7.07,0-12.8-5.73-12.8-12.8s5.73-12.8,12.8-12.8,12.8,5.73,12.8,12.8-5.73,12.8-12.8,12.8Z" style="fill: #b61c31;"/>
    </g>
  </g>
</svg>