<?xml version="1.0" encoding="UTF-8"?>
<svg id="_圖層_2" data-name="圖層 2" xmlns="http://www.w3.org/2000/svg" xmlns:xlink="http://www.w3.org/1999/xlink" viewBox="0 0 185.98 97.53">
  <defs>
    <style>
      .cls-1 {
        fill: #fff;
      }

      .cls-2 {
        filter: url(#drop-shadow-1);
      }
    </style>
    <filter id="drop-shadow-1" filterUnits="userSpaceOnUse">
      <feOffset dx="2.83" dy="2.83"/>
      <feGaussianBlur result="blur" stdDeviation="2.83"/>
      <feFlood flood-color="#000" flood-opacity=".05"/>
      <feComposite in2="blur" operator="in"/>
      <feComposite in="SourceGraphic"/>
    </filter>
  </defs>
  <g id="_圖層_2-2" data-name=" 圖層 2">
    <g id="_圖層_2-2" data-name=" 圖層 2-2" class="cls-2">
      <path class="cls-1" d="m184.94,49.4c-3.21-1.61-5.84-4.16-9.22-5.49h0c-4.11-1.91-4.66-4.61-1.64-8.1.7-.82,1.15-1.84,1.73-2.76h-.02.02c1.48-2.35,2.11-4.93,2.21-7.67h0c.52-1.45-.28-3.09,1.15-4.56,1.16-1.19-.7-2.04-1.52-2.73-2.36-1.97-5.62-2.44-7.91-4.58-1.2-2.73-3.93-3.81-6.27-4.97-4.61-2.28-9.09-4.92-14.21-6.12-1.33-.31-2.44-1.43-3.76-1.89-3.43-1.18-6.55-.26-9.46,1.64-.79.12-1.59.24-2.37.37h0c-.79-.88-1.76-1.33-2.75-1.33-.5,0-1.01.12-1.51.35-1.63.76-.86,2.39-.75,3.71-1.34.19-2.37.48-3.09,1.15-.71.66-1.1,1.7-1.14,3.37-.04,2.06-1.28,4.4-1.59,6.79,1.3.56.63-1.17,1.59-1.12.43,1.48.91,2.97.06,4.54h0c-.03,1.46.18,2.74-1.34,4-.97.81-2.08,2.81-.6,4.53-.66.42-1.63.35-2.05,1.18h0c-1.69-.52-3.38-1.05-5.07-1.58-2.28-1.51-5.68-.25-7.56-3.13-.58-.9-5.33,2.14-5.68,3.6-.19.83-.5,1.62-.75,2.43h0c.39,4.55,3.88,7.2,6.52,10.38.89,1.07,2.27,2.25,1.21,3.72-1.07,1.48-2.58.16-3.92.1-5.4-.25-7.19-3.63-8.64-8.12-2.38-7.38-8.05-12.33-15.43-14.06-5.36-1.26-10.87-3.26-16.65-2.31-1.36.23-2.03.9-2.56,2.18-.86,2.1-1.94,4.16-4.65,1.47-.99-.98-2.44-1.21-3.21.58-2.34-.75-4.22-2.72-6.92-2.51-.7-.08-1.4-.17-2.1-.24-1.89-1.93-3.16-1.77-4.83.58-2.18,3.08-3.76,6.91-8.03,8.05-.53.14-1.19.56-1.57.39-3.78-1.7-6.1,1.27-8.93,2.6-2.66-.02-3.21,2.1-4.1,3.89-4.22,4.15-4.23,8.26-.04,10.86v.02c.39.19.77.38,1.16.57.22.57.45,1.15.67,1.72-.92.07-1.69.32-.79,1.33.8.89,1.74,1.63,2.63,2.44h0c-.23.23-.54.67-.69.63-1.49-.44-3.1-1.62-3.98.77-.65,1.77-2.4,3.51,0,5.4,1.05.84.57,1.89-.66,2.15-2.26.49-3.9,1.24-3.76,3.98.07,1.26-1.07,1.07-1.97.8h0c-4.1-4.02-7.72-3.37-9.7,1.71-.27.69-.91,1.48-.13,2.09.91.72,1.28-.29,1.82-.78.39-.37.88-.65,1.36-.88.58-.28,1.09-.02,1.44.46.76,1.03-.27.78-.72,1.14-1.21.97-.76,1.12.37,2.6,1.12,1.47,3.42,3.09,1.33,5.45-1.56,1.77-.83,4.18-1.84,6.11-.42.8.34,1.17.93,1.44,1.12.52,2.18,1.07,2.9,2.1v.03c1.42.58,2.64,1.37,3.64,2.59,1.07,1.3,2.41,2.24,4.21,1.06,1.2-.79,1.19-.79-.02,0h.02c1.29-.1,2.59-.22,3.88-.32,2.77.85,5.62.4,8.44.5,1.18.03,2.35.43,3.52.67h.04c2.66.57,5.32.81,8.01.14h.04c.29,2.41.22,2.28,2.89.83.89-.48,2.26-.08,3.41-.08h0c2.08.35,1.95-1.66,2.63-2.62,1.11-1.53,1.74-3.39,2.59-5.11,1.59.64,2.27,1.61,1.36,3.31-.81,1.54-1.53,3.14-2.24,4.74-.35.79-.26,1.51.68,1.86.77.29,1.26-.14,1.63-.74.17-.28.3-.58.47-.86,2.13-3.6,2.74-7.98,6-11.02.66-.61,1.09-1.67.65-2.73h0s0,.02-.02.03v-.03h0c1.23-2.93,1.76-6.21,4.09-8.6,1.43-1.47-2.05-2.12-.48-3.5h0c.97-.82,2.15-.59,3.28-.65h0c3.2,1.99,6.95.21,10.32,1.47,1.43.54,2.83,1.08,4.77,1.94-1.47.03-2.33-.03-3.15.1-.66.1-1.29.48-1.41,1.22-.12.8.54,1.13,1.14,1.42,1.7.81,3.4,1.59,5.12,2.37.62.29,1.29.47,1.84-.1.4-.41.67-1,.27-1.48-2.04-2.37-.45-2.31,1.44-2.19.73.04,1.18-.51,1.54-1.1h0c1.05.3,2.09.7,3.17.9,4.6.8,6.89,4.54,9.72,7.5.81.85,1.12,2.1,2.59,2,.57-.04,1.1-.37,1.16-.99.14-1.33-1.31-1.29-1.9-2-.27-.32-.5-.66-1.06-1.41,3.55.89,6.41,2.77,9.78,2.03h0c2.56-1.25,5.44-1.97,5.85-5.64.27-2.41,3.52-2.53,5.78-.07,1.49,1.63,3.27,2.57,5.23,3.34.79.3,1.55.19,2.08-.53.44-.6.42-1.36-.06-1.83-3.21-3.13.1-4.19,1.91-5.48,1.21-.85,3.09-.97,2.97-2.98-.13-2.13-2.27-1.27-3.32-2.04-.33-.24-.53-.66-.79-1h0c2.02.95,3.5.43,4.45-1.56,3.87-.03,3.38-3.72,4.96-5.67h0c.61.8,1.32,1.57,2.32,1.76,3.21.6,5.18,1.85,6.55,5.32.95,2.4,4.88,3.4,8.07,3.71h0c.58.92.77,1.82.77,2.74,0,1.3-.39,2.64-.54,4.02-.35,3.19,2.77,4.52,5.15,5.89,1.26.72,2.91,2.09,4.14-.24.7.1,1.6.77,1.77-.61h0c1.27-1.5-.51-3.18.29-4.71,1.74-3.31,2.6-7.17,6.24-9.31,1.31-.77,2.62-1.68,3.26-3.17h0c4.87-2.27,4.7-7.45,6.73-11.35.38-.73.03-1.7-.93-2.17l.04-.04ZM20.7,70.26c.03-.23.04-.45.05-.66.11.02.21.03.32.05-.12.18-.25.38-.37.61Zm6.77-13.39s.02-.02.03-.03c.02.02.03.03.04.05-.03,0-.04-.02-.07-.03h0Zm31.13-28.15c.05-.04.1-.1.13-.15.06.03.13.06.19.1-.11.02-.22.03-.33.05h.01Zm2.74-.41l-.02.02s.03-.06.04-.09c.03.02.04.03.06.04-.03,0-.06.02-.09.03h0Zm64.51-15.62s-.04-.03-.05-.04h0c-.02-.06-.03-.11-.04-.17h.13s-.04.09-.06.13c0,.03,0,.04.02.07h0Zm1.07,8.39h0v-.02.02Zm28.8,41.07l.06-.03s.04.04.04.07c-.04-.02-.07-.03-.11-.03h.01Z"/>
    </g>
  </g>
</svg>